<svg xmlns="http://www.w3.org/2000/svg" width="736" height="1207" viewBox="0 0 736 1207" version="1.1"><path d="M 194.533 1.946 C 194.212 2.466, 195.764 5.279, 197.983 8.196 C 204.475 16.732, 205.382 22.672, 202 34.500 C 199.388 43.635, 199.477 47.373, 202.500 55.404 C 204.761 61.412, 206.093 74, 204.467 74 C 204.173 74, 201.711 72.874, 198.995 71.498 C 196.279 70.121, 190.159 68.086, 185.395 66.975 C 176.952 65.007, 176.532 64.767, 168.865 57.555 C 159.120 48.387, 156.021 47.178, 148.408 49.573 C 143.425 51.140, 141.783 51.189, 132.182 50.053 C 112.496 47.724, 110.715 47.644, 111.202 49.107 C 111.497 49.991, 115.968 51.041, 124.485 52.226 C 138.195 54.133, 149.081 56.948, 152.763 59.539 C 154.008 60.415, 155.974 63.015, 157.131 65.316 C 158.288 67.617, 161.769 71.867, 164.867 74.759 L 170.500 80.019 165.500 79.279 C 162.750 78.873, 155.100 78.531, 148.500 78.520 C 137.639 78.502, 136.201 78.714, 133.346 80.750 C 131.611 81.987, 128.890 83, 127.300 83 C 119.989 83, 98.304 90.082, 96.455 93.073 C 94.973 95.471, 97.795 96.211, 100.652 94.173 C 104.692 91.291, 118.337 87.739, 126 87.575 C 134.957 87.383, 157 92.619, 157 94.939 C 157 95.306, 153.738 96.657, 149.750 97.940 C 140.283 100.988, 123.639 108.809, 116.310 113.654 C 113.115 115.766, 108.250 119.748, 105.500 122.502 C 91.123 136.903, 72.791 156.464, 69.897 160.493 C 64.275 168.322, 56.120 172.347, 37.369 176.547 C 23.717 179.605, 22.805 179.990, 17.765 184.807 C 13.693 188.698, 8.696 199.483, 7.482 207 C 6.993 210.027, 5.649 212.729, 3.377 215.253 C 1.520 217.317, -0 219.379, -0 219.836 C -0 222.400, 1.977 221.283, 7.871 215.388 C 11.488 211.772, 16.033 208.009, 17.973 207.027 C 23.343 204.309, 36.968 199, 38.576 199 C 40.440 199, 40.382 201.360, 38.426 205.142 C 37.561 206.816, 36.418 212.437, 35.886 217.633 C 34.100 235.090, 31.942 239.459, 17.279 255.302 C 9.535 263.670, 3.596 274.167, 2.176 282 C 1.703 284.613, 1.853 292.370, 2.534 300.500 C 3.493 311.933, 3.462 315.325, 2.365 319 C 0.552 325.072, 0.605 329, 2.500 329 C 3.325 329, 4.014 328.212, 4.032 327.250 C 4.049 326.288, 4.724 324.626, 5.532 323.559 C 6.339 322.491, 7 320.594, 7 319.343 C 7 316.286, 9.610 310.756, 14.476 303.500 L 18.500 297.500 19.198 307.298 C 19.720 314.610, 20.546 318.514, 22.458 322.688 C 25.844 330.086, 28 338.649, 28 344.705 C 28 347.409, 26.650 354.893, 25 361.337 C 23.350 367.780, 22 374.758, 22 376.843 C 22 384.435, 26.611 398.147, 34.622 414.377 C 36.489 418.159, 38.300 423.023, 38.646 425.185 C 39.358 429.639, 42.126 433.658, 43.778 432.637 C 44.576 432.144, 44.551 431.063, 43.690 428.728 C 42.139 424.521, 42.067 394.231, 43.603 391.638 C 44.596 389.960, 44.767 390.086, 45.330 392.901 C 46.353 398.013, 52.165 405.995, 60.965 414.373 C 68.651 421.690, 69.334 422.672, 70.648 428.304 C 71.426 431.637, 72.950 435.802, 74.037 437.559 C 76.004 440.743, 76.004 440.773, 74.028 445.128 C 71.783 450.075, 71.433 457.069, 73.180 462.101 C 73.829 463.970, 76.304 468.707, 78.680 472.627 C 81.056 476.546, 83 480.100, 83 480.523 C 83 481.993, 90.208 492.142, 91.643 492.693 C 94.245 493.692, 94.186 492.270, 91.379 486.343 C 89.857 483.129, 88.696 479.461, 88.799 478.191 C 89.139 474.023, 97.009 455.283, 99.588 452.500 C 102.790 449.045, 103.272 449.559, 101.499 454.538 C 99.666 459.683, 99.626 467.376, 101.413 470.832 C 102.263 472.476, 104.777 474.447, 107.721 475.777 C 115.545 479.313, 117.770 482.320, 119 491.025 C 120.171 499.302, 122.873 504.195, 132.614 515.678 C 135.549 519.138, 139.105 524.247, 140.516 527.031 C 142.897 531.730, 145.337 533.996, 146.627 532.707 C 147.367 531.966, 143.973 524.546, 140.153 518.554 C 135.551 511.335, 135.889 508.649, 143.218 494.250 C 146.646 487.512, 149.800 482, 150.226 482 C 150.652 482, 151 483.120, 151 484.489 C 151 488.901, 155.890 499.284, 161.917 507.667 C 168.462 516.770, 170.256 519.774, 172.418 525.250 C 174.225 529.829, 177.627 530.647, 176.576 526.250 C 176.215 524.738, 175.682 520.575, 175.391 517 C 174.883 510.752, 175.020 510.240, 178.931 503.805 C 181.169 500.122, 183 496.635, 183 496.055 C 183 494.358, 184.672 494.714, 201 499.885 C 215.516 504.482, 220.467 505.929, 232.224 509.008 C 236.693 510.179, 237.057 510.537, 238.974 515.660 C 240.088 518.638, 241 521.712, 241 522.491 C 241 523.269, 239.041 524.773, 236.648 525.832 C 233.789 527.096, 231.289 529.257, 229.364 532.128 L 226.432 536.500 213.966 537.150 C 198.428 537.961, 175.924 541.980, 169.967 545.009 C 161.214 549.459, 148.896 558.345, 143.739 563.929 C 132.713 575.865, 120.565 596.229, 101.639 634.500 C 82.091 674.028, 77.025 685.251, 67.332 710.500 C 65.432 715.450, 62.813 722.200, 61.511 725.500 C 58.882 732.167, 50.894 763.343, 48.829 775 C 47.965 779.874, 47.513 790.729, 47.536 806 C 47.567 825.768, 47.925 831.470, 49.791 841.903 C 53.125 860.542, 58.845 876.570, 72.489 905.500 C 76.201 913.371, 80.633 926.634, 84.518 941.500 C 85.956 947, 87.933 953.300, 88.913 955.500 C 91.619 961.578, 98.549 968.645, 108.100 975.067 L 116.718 980.862 115.344 988.128 C 114.136 994.517, 114.159 995.963, 115.540 1000.120 C 117.430 1005.810, 124.283 1012.566, 129.160 1013.548 C 131.910 1014.101, 133.295 1015.450, 137 1021.182 C 139.492 1025.038, 145.131 1031.467, 149.637 1035.592 C 154.113 1039.689, 158.352 1044.435, 159.057 1046.139 C 161.187 1051.281, 159.777 1052.183, 149.338 1052.352 C 138.865 1052.522, 137.132 1053.469, 134.449 1060.493 C 131.557 1068.068, 132.104 1068.809, 145.500 1075.443 C 157.350 1081.311, 157.626 1081.390, 167.547 1081.798 C 177.291 1082.199, 177.692 1082.130, 180.812 1079.505 C 184.706 1076.228, 187.155 1076.747, 186.517 1080.712 C 186.270 1082.245, 185.588 1088.900, 185.002 1095.500 C 184.415 1102.100, 183.271 1112.900, 182.459 1119.500 C 181.647 1126.100, 180.521 1140.275, 179.957 1151 C 178.988 1169.407, 178.119 1181.322, 176.438 1199.250 L 175.711 1207 257.268 1207 L 338.824 1207 339.505 1202.750 C 340.213 1198.323, 344.368 1179.052, 348.505 1161 C 349.829 1155.225, 352.065 1144.200, 353.473 1136.500 C 354.882 1128.800, 356.343 1121.375, 356.720 1120 C 357.977 1115.417, 358.785 1134.469, 358.894 1171.250 L 359 1207 436.152 1207 L 513.304 1207 512.601 1107.148 C 511.847 1000.190, 511.780 998.787, 506.517 979.469 C 504.519 972.135, 504.098 969.134, 504.851 967.580 C 507.174 962.778, 510.087 952.459, 510.656 947.013 C 511.921 934.911, 507.859 912.771, 500.012 889 C 494.163 871.279, 492.687 862.707, 490.531 833.912 C 489.683 822.589, 488.343 811.114, 487.554 808.412 C 483.862 795.767, 481.466 753.607, 482.461 718.797 L 483.224 692.095 486.362 692.678 C 497.748 694.795, 513.646 701.086, 541.260 714.401 C 549.928 718.580, 557.243 722, 557.515 722 C 557.787 722, 565.545 725.638, 574.755 730.083 C 600.042 742.290, 609.508 745.391, 631 748.509 C 643.025 750.253, 662.015 750.510, 673.053 749.079 C 681.602 747.970, 693.081 744.155, 700.530 739.946 C 710.672 734.217, 727.408 713.811, 730.674 703.192 C 731.468 700.611, 732.537 694.675, 733.050 690 C 734.279 678.796, 732.862 669.159, 727.468 652.027 L 723.226 638.554 726.534 634.689 C 732.019 628.281, 733.202 617.735, 729.890 604.781 C 729.171 601.966, 729.342 599.831, 730.593 596.004 C 731.670 592.712, 732.024 589.554, 731.609 586.953 C 731.176 584.249, 731.459 582.013, 732.485 580.029 C 734.228 576.658, 734.498 566.726, 732.965 562.330 C 732.168 560.044, 732.282 558.689, 733.459 556.431 C 735.598 552.329, 735.375 545.655, 732.938 540.879 C 731.513 538.085, 731.078 535.923, 731.527 533.875 C 731.885 532.245, 731.663 528.762, 731.032 526.134 C 728.915 517.309, 721.874 512.468, 709.022 511.003 C 700.659 510.049, 686.353 511.068, 680.362 513.045 C 678.439 513.680, 676.654 513.987, 676.394 513.727 C 676.134 513.468, 674.586 509.327, 672.953 504.526 C 670.811 498.229, 669.698 492.413, 668.957 483.649 C 668.392 476.967, 667.435 469.925, 666.830 468 C 663.952 458.839, 656.088 450.005, 648.892 447.849 C 642.068 445.805, 633.955 449.061, 632.620 454.378 C 632.276 455.749, 632.933 459.527, 634.146 463.144 C 635.736 467.889, 636.387 472.795, 636.714 482.500 C 637.158 495.665, 636.235 503.576, 631.346 528.500 C 628.809 541.434, 629.007 563.595, 631.722 570.607 L 633.699 575.713 630.858 579.523 C 629.295 581.619, 627.073 585.283, 625.920 587.666 C 624.697 590.191, 622.136 593.145, 619.779 594.749 C 617.554 596.262, 613.875 599.147, 611.603 601.160 L 607.472 604.820 594.986 598.585 C 580.356 591.279, 569.065 585.287, 560.006 580.021 C 556.428 577.942, 549.709 574.342, 545.076 572.021 C 540.443 569.701, 535.493 566.997, 534.076 566.011 C 531.534 564.243, 526.483 561.056, 498 543.251 C 465.314 522.819, 453.617 516.993, 436.141 512.439 C 423.365 509.110, 403.919 509.427, 392.159 513.156 C 389.101 514.126, 388.550 513.957, 385.659 511.164 C 382.349 507.967, 374.739 504.059, 371.750 504.022 C 370.429 504.005, 370 503.162, 370 500.582 C 370 495.535, 370.767 494.253, 375.870 490.774 C 399.420 474.718, 427.606 447.669, 444.409 425 C 447.059 421.425, 449.738 418.500, 450.363 418.500 C 452.156 418.500, 457.015 429.145, 458.294 435.878 C 459.846 444.046, 463 443.972, 463 435.768 C 463 434.080, 463.724 429.128, 464.608 424.764 C 466.539 415.232, 466.131 404.858, 463.634 400 C 460.932 394.745, 460.765 392.422, 462.560 385.039 C 464.893 375.439, 465.188 375.108, 469.381 377.366 C 474.662 380.210, 482.492 388.388, 484.960 393.638 C 486.741 397.427, 487.106 399.724, 486.836 405.422 C 486.570 411.022, 486.796 412.500, 487.918 412.500 C 489.376 412.500, 490.839 407.798, 492.893 396.500 C 493.493 393.200, 495.130 386.900, 496.532 382.500 C 500.181 371.048, 498.358 363.424, 490.089 355.563 C 488.390 353.948, 487 352.202, 487 351.684 C 487 351.166, 488.625 348.943, 490.612 346.745 C 492.598 344.546, 495.578 339.852, 497.234 336.314 L 500.244 329.881 502.754 332.190 C 506.150 335.316, 508.951 341.676, 508.978 346.323 C 508.996 349.420, 509.333 350.083, 510.750 349.810 C 512.327 349.508, 512.527 347.697, 512.774 331.511 C 513.063 312.564, 512.240 305.783, 508.891 299.536 C 507.204 296.388, 506.822 293.656, 506.664 283.618 C 506.474 271.575, 506.449 271.456, 502.573 264.337 C 500.428 260.397, 494.950 252.754, 490.401 247.353 C 484.753 240.648, 481.714 236.099, 480.821 233.016 C 479.450 228.287, 479.098 197.569, 480.399 196.267 C 481.712 194.954, 488.565 199.518, 495 205.990 C 502.253 213.285, 504.676 217.981, 508.082 231.346 C 510.122 239.354, 511.962 242.371, 513.728 240.606 C 514.080 240.253, 513.825 237.835, 513.159 235.232 C 512.494 232.629, 511.769 228.925, 511.548 227 C 511.327 225.075, 510.438 221.025, 509.571 218 C 508.704 214.975, 506.211 205.840, 504.029 197.700 C 498.294 176.295, 496.667 173.702, 475.673 152.502 C 457.013 133.660, 454.678 130.827, 448.591 119.657 C 441.096 105.901, 434.162 98.590, 425.250 95.049 C 421.280 93.471, 421.164 92.568, 424.750 91.173 C 435.473 87.004, 440.091 87.614, 450 94.511 C 458.167 100.195, 466.752 105, 468.742 105 C 469.434 105, 469.986 104.213, 469.968 103.250 C 469.948 102.157, 467.226 99.893, 462.718 97.218 C 453.025 91.468, 444.863 85.447, 436.070 77.563 C 419.212 62.447, 405.973 58.251, 373 57.573 C 355.085 57.205, 351.872 56.573, 344.672 52.007 C 342.054 50.347, 337.120 47.809, 333.706 46.367 C 327.853 43.895, 326.817 43.776, 315.500 44.267 C 302.179 44.845, 296.744 46.294, 283.033 52.925 C 278.461 55.136, 274.333 56.706, 273.860 56.413 C 272.309 55.455, 272.941 49.766, 274.750 48.392 C 275.712 47.661, 278.358 47.049, 280.628 47.032 C 286.604 46.986, 291.298 44.658, 294.183 40.308 C 299.317 32.568, 307.244 25.625, 313.946 23 C 319.983 20.636, 323.237 17.903, 321.767 16.433 C 321.402 16.069, 319.118 16.733, 316.690 17.908 C 314.262 19.083, 308.517 20.706, 303.923 21.514 C 288.052 24.304, 281.635 27.857, 274.972 37.541 C 272.552 41.058, 270.800 42.330, 265.932 44.105 C 261.427 45.748, 258.903 47.465, 255.995 50.868 C 253.850 53.377, 251.764 55.097, 251.358 54.691 C 250.198 53.532, 253.890 32.299, 256.694 24 C 258.088 19.875, 260.819 13.440, 262.764 9.700 C 265.477 4.483, 266.026 2.626, 265.123 1.723 C 263.391 -0.009, 260.893 1.860, 258.377 6.769 C 257.209 9.047, 253.834 13.901, 250.877 17.557 C 247.919 21.213, 244.728 25.171, 243.784 26.352 C 241.763 28.881, 240.642 33.561, 238.477 48.500 C 236.840 59.801, 235.190 66, 233.819 66 C 233.391 66, 232.142 64.238, 231.043 62.084 C 229.944 59.930, 226.737 55.542, 223.917 52.334 C 217.668 45.224, 217.116 43.867, 215.844 32.500 C 214.462 20.151, 212.183 15.393, 203.887 7.532 C 196.984 0.991, 195.625 0.180, 194.533 1.946 M 254.474 173.950 C 256.764 178.378, 258.969 188.770, 258.985 195.215 C 258.998 200.213, 258.604 201.382, 255.845 204.524 C 254.110 206.500, 250.770 209.438, 248.425 211.052 C 240.669 216.388, 240.075 224.454, 246.648 235.202 C 249.930 240.568, 250.491 242.314, 250.436 247 C 250.382 251.676, 249.771 253.420, 246.358 258.639 C 237.943 271.509, 237.137 282.120, 242.958 303.394 C 244.598 309.386, 245.702 314.674, 245.411 315.144 C 243.953 317.504, 242.450 315.338, 239.027 305.947 C 237.610 302.056, 234.981 298.213, 230.252 293.114 C 223.263 285.579, 219 279.036, 219 275.843 C 219 273.416, 216.350 273.477, 215.035 275.934 C 213.457 278.883, 213.769 279.962, 216.500 281 C 217.875 281.523, 219 282.657, 219 283.521 C 219 284.772, 218.293 284.958, 215.511 284.436 C 210.967 283.584, 210.564 284.709, 211.648 295.236 C 212.391 302.441, 211.633 318.753, 210.361 322.928 C 209.678 325.171, 207.785 322.548, 204.641 315 C 203.152 311.425, 199.218 305.125, 195.899 301 C 192.579 296.875, 188.957 292.038, 187.850 290.250 C 186.743 288.462, 185.009 287, 183.996 287 C 181.470 287, 174.025 292.839, 171.193 297.042 C 168.655 300.808, 166.716 301.482, 166.196 298.779 C 165.780 296.618, 173.427 288.346, 178.935 285 C 183.433 282.268, 183.387 282.637, 180.409 273 C 179.169 268.986, 178.668 263.432, 178.557 252.443 L 178.405 237.387 175.035 233.193 C 173.182 230.887, 171.298 229, 170.849 229 C 170.401 229, 168.910 231.217, 167.537 233.926 C 161.226 246.381, 160.379 254.378, 164.607 261.592 C 167.655 266.794, 167.515 269.108, 163.521 279.500 C 161.253 285.398, 160.890 287.680, 161.210 294 C 161.533 300.383, 162.067 302.237, 164.795 306.446 C 168.572 312.274, 168.693 314.026, 165.886 322.282 C 164.114 327.493, 163.858 330.007, 164.309 337.805 C 164.604 342.923, 165.353 347.720, 165.972 348.466 C 166.729 349.378, 166.761 350.030, 166.069 350.457 C 164.833 351.221, 161 349.330, 161 347.956 C 161 347.421, 158.570 344.339, 155.600 341.109 C 148.236 333.099, 147.332 331.487, 146 324 C 144.222 314.004, 142.331 310.421, 137.045 307.029 C 130.218 302.648, 128.275 300.153, 126.558 293.562 C 125.093 287.938, 125.441 280.690, 127.532 273.304 C 127.813 272.312, 126.213 275.141, 123.976 279.591 C 120.815 285.882, 119.785 289.220, 119.348 294.591 C 118.791 301.424, 118.828 301.555, 122.637 306.500 C 127.801 313.204, 127.717 317.022, 122.089 331.500 C 118.318 341.202, 117.867 343.210, 118.272 348.513 C 118.573 352.455, 119.759 356.587, 121.716 360.513 C 125.860 368.827, 126.993 374.268, 127.064 386.199 C 127.097 391.864, 127.557 399.623, 128.086 403.441 C 128.876 409.148, 128.785 410.644, 127.574 411.855 C 126.413 413.016, 125.794 413.074, 124.652 412.126 C 122.337 410.205, 119.351 409.886, 104.516 409.975 C 88.131 410.074, 84.410 410.971, 79.490 416.010 C 74.499 421.122, 73.891 425.879, 77.357 432.717 C 80.290 438.505, 84.135 441.252, 91.500 442.821 C 101.500 444.950, 105.725 445.084, 113.116 443.504 C 117.177 442.637, 121.646 441.680, 123.047 441.379 C 125.301 440.894, 126.118 441.618, 130.147 447.666 C 150.497 478.212, 181.223 493.584, 253.500 509.379 C 263.344 511.531, 288.099 514, 299.823 514 C 319.344 514, 343.089 505.897, 366.938 491.096 C 386.505 478.952, 419.959 449.100, 432.798 432.326 C 445.732 415.428, 450.967 406.181, 455.628 392 C 458.686 382.697, 461.988 363.603, 461.995 355.177 C 461.999 349.696, 462.233 348.898, 463.750 349.187 C 464.712 349.370, 465.644 350.528, 465.820 351.760 C 466.947 359.662, 488.512 345.901, 494.020 333.766 C 497.897 325.223, 495.342 318.407, 486.647 314.095 L 481.797 311.690 475.148 313.930 C 467.501 316.507, 463.037 319.189, 457.597 324.471 C 454.806 327.182, 453.533 327.862, 452.966 326.946 C 451.916 325.246, 452.784 323.142, 456.143 319.245 C 459.295 315.587, 459.277 314.821, 455.729 302 C 454.353 297.030, 453.451 289.946, 453.055 281 C 452.372 265.608, 450.933 261.491, 443.559 253.827 C 438.254 248.315, 433.746 242.423, 431.552 238.135 C 430.262 235.615, 429.543 235.057, 428.689 235.911 C 427.835 236.765, 428.483 239.798, 431.274 247.993 C 433.323 254.010, 435 260.861, 435 263.217 C 435 268.459, 432.476 280.924, 431.145 282.255 C 429.553 283.847, 428.002 282.102, 427.976 278.691 C 427.946 274.613, 424.296 265.728, 420.289 259.976 C 418.573 257.514, 414.240 253.250, 410.659 250.500 C 407.078 247.750, 403.594 244.375, 402.917 243 C 402.241 241.625, 401.620 237.575, 401.537 234 C 401.292 223.432, 398.708 220.659, 387.648 219.092 C 383.916 218.564, 380.261 217.631, 379.524 217.020 C 376.395 214.423, 375 209.193, 375 200.059 C 375 189.262, 373.391 185.233, 366.784 179.491 C 361.902 175.246, 358.297 173.536, 352.331 172.633 L 348.162 172.002 349.187 175.717 C 349.752 177.760, 349.908 181.697, 349.536 184.466 C 347.659 198.434, 347.404 196.922, 352.847 204.108 C 355.599 207.742, 358.961 213.367, 360.316 216.608 C 363.030 223.097, 363.690 223.574, 374.730 227.034 C 381.625 229.194, 386.115 232.218, 384.631 233.703 C 384.251 234.082, 380.215 233.179, 375.661 231.696 C 371.107 230.213, 366.914 229, 366.343 229 C 365.719 229, 365.036 233.883, 364.631 241.250 C 364.260 247.988, 363.538 256.408, 363.025 259.963 C 362.512 263.517, 362.241 266.574, 362.423 266.757 C 362.605 266.939, 364.047 267.302, 365.627 267.564 C 372.889 268.769, 374.363 269.479, 379.680 274.331 C 387.678 281.631, 391.112 289.412, 391.774 301.731 C 392.420 313.746, 390.951 319.102, 385.519 324.533 C 381.539 328.514, 373.837 332, 369.022 332 C 362.256 332, 350.737 321.492, 347 311.910 C 344.899 306.523, 344.500 303.824, 344.500 295 C 344.500 285.724, 344.810 283.839, 347.156 278.835 C 348.683 275.578, 351.021 272.412, 352.656 271.387 C 354.220 270.407, 355.641 269.515, 355.814 269.405 C 356.348 269.065, 348.906 254.753, 345.723 250 C 342.475 245.149, 337.015 239, 335.955 239 C 335.596 239, 335.651 241.363, 336.076 244.250 C 336.501 247.137, 337.078 257.150, 337.358 266.500 C 337.638 275.850, 338.010 284.383, 338.184 285.462 C 338.370 286.616, 337.859 287.557, 336.944 287.748 C 335.837 287.978, 334.905 286.540, 333.715 282.765 C 330.915 273.883, 324.390 265.199, 315.121 258.020 C 309.964 254.025, 308 249.912, 308 243.109 C 308 237.034, 305.982 234.354, 296.635 228.016 C 289.050 222.872, 288 220.805, 288 211.020 C 288 202.889, 286.026 198.601, 277.500 188.219 C 271.512 180.927, 258.348 171, 254.666 171 C 253.086 171, 253.071 171.236, 254.474 173.950 M 363.345 275.500 C 364.092 280.949, 362.928 281.238, 359.910 276.354 L 357.656 272.708 354.401 276.259 C 350.525 280.489, 349.013 285.343, 349.006 293.583 C 348.997 302.484, 350.875 310.381, 354.396 316.255 C 358.792 323.588, 362.770 326, 370.468 326 C 376.082 326, 377.012 325.682, 380.748 322.484 C 385.866 318.103, 387.407 313.732, 387.441 303.500 C 387.497 286.600, 376.915 271, 365.396 271 C 362.809 271, 362.747 271.137, 363.345 275.500 M 366.250 292.201 C 363.357 292.963, 363 293.446, 363 296.594 C 363 301.421, 364.436 303.717, 367.933 304.485 C 373.981 305.814, 377.544 300.886, 374.621 295.235 C 372.827 291.764, 370.758 291.014, 366.250 292.201 M 298.090 318.920 C 296.929 319.657, 296.898 320.340, 297.912 322.788 C 299.364 326.292, 305.139 329.649, 316 333.303 C 330.156 338.064, 332.848 340.370, 333.493 348.285 C 334.224 357.262, 327.393 367.015, 317 371.833 C 310.095 375.034, 299.374 375.463, 294.096 372.750 C 292.224 371.788, 290.122 371, 289.425 371 C 288.728 371, 286.103 368.945, 283.591 366.433 C 276.727 359.569, 274.428 363.501, 281.158 370.596 C 288.078 377.892, 300.335 381.126, 311.370 378.566 C 328.297 374.641, 337.378 364.335, 337.424 349 C 337.460 336.598, 334.961 334.299, 313.500 326.998 C 307.046 324.803, 303.793 323.100, 302 320.981 C 300.220 318.876, 299.094 318.282, 298.090 318.920 M 204.892 348.281 C 197.240 351.529, 193.196 354.159, 188.616 358.866 C 186.065 361.488, 184.944 363.413, 185.351 364.473 C 186.064 366.330, 188.448 365.409, 193.234 361.429 C 199.510 356.211, 212.994 352.934, 229.246 352.677 C 238.591 352.530, 240.525 352.235, 240.778 350.920 C 241.237 348.527, 234.338 346.888, 221.582 346.360 C 211.555 345.945, 209.966 346.128, 204.892 348.281 M 229.438 359.868 C 223.490 361.898, 218 365.566, 218 367.509 C 218 369.650, 219.640 370.139, 221.064 368.423 C 222.849 366.272, 226.611 364.510, 232.487 363.072 C 237.875 361.754, 240.299 360.293, 239.430 358.887 C 238.621 357.578, 235.147 357.919, 229.438 359.868 M 243 409.291 C 239.593 411.010, 230.921 422.630, 231.642 424.511 C 232.535 426.836, 233.377 426.338, 236.826 421.445 L 240.036 416.890 242.850 418.893 C 246.832 421.729, 255.141 424.847, 263.273 426.557 C 272.032 428.400, 294.933 428.675, 305.500 427.065 C 327.625 423.694, 354.680 414.882, 356.362 410.498 C 357.253 408.178, 353.644 408.640, 347.820 411.591 C 341.701 414.692, 314.895 421.493, 303.026 422.956 C 282.416 425.496, 264.670 423.785, 251.107 417.951 C 244.272 415.010, 243.027 413.401, 246.398 411.864 C 249.343 410.523, 249.903 407.992, 247.250 408.015 C 246.287 408.023, 244.375 408.597, 243 409.291 M 319.517 449.979 C 314.917 453.011, 303.791 455.189, 296.889 454.408 C 291.809 453.833, 291 453.969, 291 455.396 C 291 459.374, 302.920 460.195, 313.453 456.942 C 320.241 454.845, 324 452.193, 324 449.500 C 324 447.520, 323.103 447.615, 319.517 449.979 M 637.485 452.658 C 636.513 453.630, 636.048 455.181, 636.360 456.408 C 636.653 457.559, 637.868 462.325, 639.060 467 C 640.988 474.563, 641.171 477.319, 640.720 492 C 640.302 505.577, 639.625 511.246, 636.901 524 C 634.135 536.947, 633.604 541.476, 633.679 551.500 C 633.786 565.896, 635.672 571.958, 642.742 580.638 L 647.346 586.290 649.572 581.244 C 651.586 576.682, 655.096 573.762, 656.672 575.339 C 656.959 575.625, 655.931 578.929, 654.388 582.680 C 651.912 588.700, 651.578 590.790, 651.541 600.500 C 651.500 611.369, 651.548 611.595, 655.500 619.500 C 660.185 628.870, 661.383 630.094, 669.931 634.239 C 675.456 636.919, 677.512 637.368, 684.524 637.429 C 689.226 637.470, 693.283 637.019, 694.093 636.365 C 694.867 635.741, 696.966 634.917, 698.758 634.534 C 700.585 634.144, 704.397 631.662, 707.436 628.885 C 715.022 621.951, 721.261 608.869, 716.250 610.400 C 703.504 614.296, 694.499 614.909, 684.514 612.561 C 679.857 611.465, 677.774 610.330, 675.132 607.447 C 671.817 603.829, 671.750 603.585, 672.338 597.279 C 672.862 591.673, 672.615 590.173, 670.471 585.942 C 667.831 580.733, 667.451 577.400, 668.917 572.291 C 669.631 569.801, 669.410 568.265, 667.917 565.336 C 665.540 560.675, 665.549 557.997, 667.963 551.002 C 669.665 546.071, 669.704 545.330, 668.342 543.825 C 664.189 539.236, 664.928 526.616, 669.680 520.968 L 672.214 517.957 669.111 508.371 C 666.996 501.837, 665.671 495.080, 664.949 487.143 C 663.084 466.631, 660.019 459.991, 649.027 452.651 C 645.828 450.515, 639.625 450.518, 637.485 452.658 M 353.475 503.847 C 339.315 511.107, 325.715 515.664, 312.231 517.664 C 302.980 519.037, 299.500 519.088, 287 518.033 C 279.025 517.360, 265.797 515.718, 257.604 514.384 C 249.412 513.050, 242.560 512.107, 242.378 512.289 C 242.196 512.470, 242.952 515, 244.058 517.911 C 245.476 521.641, 246.078 525.671, 246.100 531.567 C 246.130 539.664, 246.229 540.015, 249.208 542.522 C 257.845 549.789, 271.645 553.858, 290.505 554.699 C 311.213 555.622, 328.983 551.769, 346.945 542.459 C 356.436 537.539, 369.602 526.774, 369.320 524.164 C 369.221 523.249, 368.164 519.800, 366.971 516.500 C 365.353 512.021, 364.903 508.915, 365.199 504.250 C 365.417 500.813, 365.348 498.044, 365.047 498.097 C 364.746 498.150, 359.539 500.738, 353.475 503.847 M 692.500 515.698 C 690.850 515.917, 686.715 517.002, 683.311 518.109 C 673.211 521.394, 666.743 530.751, 669.853 537.577 C 670.819 539.697, 671.615 539.999, 676.229 539.990 C 679.128 539.984, 686.617 539.084, 692.871 537.990 C 699.741 536.788, 708.738 536, 715.602 536 C 726.893 536, 726.966 535.985, 727.591 533.493 C 727.937 532.115, 727.927 529.423, 727.568 527.512 C 725.959 518.932, 709.615 513.425, 692.500 515.698 M 702 542.008 C 696.775 542.403, 689.435 543.463, 685.688 544.363 C 681.941 545.263, 677.851 546, 676.598 546 C 674.151 546, 672.880 548.019, 671.051 554.811 C 669.621 560.120, 670.948 563.438, 675.078 564.877 C 682.637 567.513, 707.562 564.845, 721.561 559.903 C 728.448 557.472, 731 554.475, 731 548.818 C 731 542.594, 729.275 541.441, 719.845 541.361 C 715.255 541.322, 707.225 541.613, 702 542.008 M 722 564.940 C 711.665 568.288, 707.490 569.016, 692 570.169 C 683.475 570.803, 675.938 571.755, 675.250 572.283 C 673.499 573.631, 673.689 582.111, 675.529 584.739 C 676.371 585.940, 678.733 587.387, 680.779 587.956 C 689.640 590.416, 712.907 588.129, 720.999 584.001 C 722.996 582.982, 726.063 580.809, 727.815 579.173 C 730.578 576.592, 731 575.532, 731 571.170 C 731 567.933, 730.440 565.583, 729.429 564.571 C 728.564 563.707, 727.777 563.036, 727.679 563.079 C 727.580 563.122, 725.025 563.960, 722 564.940 M 549.559 582.250 C 549.941 583.487, 550.981 585.850, 551.871 587.500 C 553.129 589.833, 553.564 594.202, 553.827 607.144 C 554.123 621.731, 553.891 624.882, 551.945 632.644 C 544.513 662.284, 532.915 678.274, 508.498 692.540 C 506.996 693.418, 507.793 694.033, 513.609 696.483 C 517.399 698.080, 525.900 701.938, 532.500 705.056 C 539.100 708.175, 547.875 712.202, 552 714.005 C 556.125 715.809, 567.715 721.252, 577.756 726.101 C 605.795 739.641, 621.110 743.715, 651.227 745.645 C 674.711 747.149, 695.914 740.562, 708.158 727.957 C 713.414 722.546, 721.445 712.081, 723.473 708 C 725.057 704.814, 724.642 705.055, 718.856 710.680 C 710.935 718.382, 699.427 725.226, 689.836 727.939 C 685.801 729.080, 680.165 730.700, 677.311 731.539 C 660.456 736.492, 643.007 732.784, 627.500 720.954 C 620.727 715.787, 613.115 708.442, 608.896 703 C 600.142 691.711, 592.892 671.610, 591.222 654 L 590.417 645.500 588.167 655 C 586.930 660.225, 585.674 667.200, 585.375 670.500 C 584.626 678.768, 584.335 679.523, 582.488 677.990 C 580.511 676.349, 580.547 668.107, 582.575 658.292 C 584.605 648.461, 590.704 627.472, 592.590 623.826 C 597.388 614.548, 579.401 631.087, 571.892 642.858 C 570.363 645.255, 568.820 648.541, 568.465 650.161 C 567.597 654.110, 565.575 653.228, 565.193 648.733 C 564.686 642.759, 569.608 635.028, 580.730 624.330 C 587.470 617.846, 592.193 615, 596.213 615 C 597.746 615, 599.453 613.879, 600.900 611.921 C 602.152 610.228, 603.024 608.704, 602.838 608.535 C 602.652 608.366, 597.100 605.473, 590.500 602.106 C 577.842 595.649, 559.882 585.847, 554 582.186 C 549.570 579.428, 548.693 579.441, 549.559 582.250 M 723.452 588.157 C 718.414 590.861, 715.757 591.607, 704.049 593.606 C 695.485 595.068, 691.050 595.094, 680.587 593.746 C 678.084 593.424, 676.341 599.259, 677.911 602.705 C 681.014 609.514, 702.694 610.333, 716.320 604.154 C 725.276 600.093, 731.084 591.829, 728.187 587.268 C 727.592 586.332, 726.452 586.546, 723.452 588.157 M 468.500 691.066 C 449.173 701.936, 415.216 717.079, 398.315 722.366 C 371.619 730.717, 341.899 736.885, 318.500 738.930 C 301.603 740.408, 265.333 740.201, 247 738.523 C 230.595 737.021, 207.114 733.010, 199.966 730.488 C 197.613 729.658, 195.463 729.204, 195.187 729.480 C 194.911 729.755, 194.384 734.598, 194.015 740.240 C 193.351 750.383, 195.581 774.459, 198.115 784.500 C 198.670 786.700, 199.373 796.375, 199.677 806 C 200.109 819.662, 199.858 825.913, 198.534 834.500 C 197.602 840.550, 196.603 847.098, 196.314 849.051 L 195.790 852.601 207.838 858.301 C 214.464 861.435, 220.496 864, 221.243 864 C 221.989 864, 223.028 864.394, 223.550 864.876 C 225.074 866.282, 243.623 872.555, 254.500 875.344 C 277.552 881.255, 298.367 883.979, 320.589 883.991 C 345.202 884.005, 377.076 880.307, 395 875.358 C 412.992 870.389, 444.869 858.797, 453.994 853.905 C 454.822 853.460, 459.325 851.308, 464 849.122 C 468.675 846.935, 475.425 843.392, 479 841.247 L 485.500 837.347 485.196 827.423 C 485.028 821.966, 484.011 813.452, 482.936 808.505 C 479.559 792.961, 477.873 761.070, 478.008 715.250 C 478.055 699.163, 477.960 686.001, 477.797 686.002 C 477.634 686.004, 473.450 688.282, 468.500 691.066 M 100.116 693.064 C 87.132 695.375, 79.760 698.696, 75.830 704.005 C 72.721 708.204, 63.892 732.804, 60.578 746.500 C 59.646 750.350, 58.259 755.750, 57.496 758.500 C 56.732 761.250, 55.071 768.675, 53.804 775 C 50.583 791.076, 50.650 819.421, 53.953 838.500 C 56.005 850.356, 62.158 872.337, 63.979 874.314 C 64.391 874.762, 66.626 872.744, 68.946 869.830 C 76.161 860.768, 89.952 852.078, 107.767 845.365 C 122.375 839.862, 142.710 838.506, 156.886 842.090 C 161.432 843.240, 165.389 843.944, 165.679 843.655 C 167.393 841.940, 161.554 819.926, 157.034 811.066 C 152.291 801.770, 144.830 793.895, 138.750 791.767 C 137.238 791.237, 136 790.114, 136 789.271 C 136 786.754, 142.126 788.375, 147.673 792.360 C 150.371 794.299, 154.135 798.048, 156.039 800.692 L 159.500 805.500 159.828 802.629 C 160.200 799.378, 157.225 786.257, 155.936 785.460 C 155.471 785.173, 153.878 782.710, 152.396 779.986 C 150.913 777.262, 148.629 774.331, 147.318 773.473 C 144.512 771.634, 145.216 769.629, 148.334 770.578 C 151.253 771.466, 154.044 774.016, 155.090 776.750 C 155.563 777.987, 156.588 779, 157.367 779 C 158.146 779, 159.082 780.190, 159.447 781.645 C 160.335 785.181, 161.322 783.847, 163.949 775.560 C 166.111 768.742, 171.291 758.230, 180.403 742.171 L 185.007 734.057 183.348 729.779 C 177.512 714.725, 156.928 699.649, 135 694.366 C 127.146 692.474, 107.543 691.742, 100.116 693.064 M 185.357 743.363 C 176.698 757.517, 169.585 772.721, 165.412 786 C 163.355 792.544, 164.446 813.475, 167.550 827 C 169.067 833.612, 170.344 843.610, 170.998 854 C 172.727 881.459, 175.733 895.461, 184.364 916.262 C 186.364 921.081, 188 926.117, 188 927.453 C 188 928.789, 188.387 930.121, 188.859 930.413 C 189.787 930.987, 191.446 914.256, 191.427 904.500 C 191.421 901.200, 190.800 891.265, 190.046 882.423 C 188.695 866.570, 188.712 866.125, 191.288 850.423 C 195.758 823.185, 196.118 818.590, 195.052 802.405 C 194.513 794.207, 193.431 783.900, 192.648 779.500 C 191.260 771.701, 189.167 752.172, 188.722 742.863 L 188.500 738.225 185.357 743.363 M 163.500 971.456 C 158.946 972.839, 151.788 976.354, 147.786 979.173 C 145.111 981.058, 145.095 981.132, 146.687 984.471 C 148.642 988.569, 147.612 991.784, 142.054 998.930 C 138.885 1003.005, 138.500 1004.149, 138.500 1009.500 C 138.500 1015.027, 138.849 1015.973, 142.928 1021.500 C 145.363 1024.800, 148.513 1028.557, 149.928 1029.850 C 160.332 1039.355, 164.004 1043.518, 164.508 1046.381 C 166.315 1056.648, 160.574 1069.855, 158.233 1060.818 C 157.448 1057.791, 156.951 1057.441, 152.437 1056.745 C 143.232 1055.325, 137 1058.042, 137 1063.474 C 137 1066.230, 138.118 1066.948, 151.331 1072.677 C 157.714 1075.445, 161.270 1076.331, 167.598 1076.727 C 175.623 1077.230, 175.715 1077.209, 177.686 1074.367 C 181.329 1069.115, 182.917 1061.970, 183.878 1046.500 C 184.446 1037.374, 184.675 1036.500, 186.500 1036.500 C 188.224 1036.500, 188.538 1037.259, 188.778 1042 C 189.035 1047.094, 187.063 1063.881, 185.459 1070.250 C 184.796 1072.882, 184.927 1073, 188.497 1073 C 194.286 1073, 199.541 1069.497, 201.854 1064.098 C 204.107 1058.838, 206.755 1045.197, 207.791 1033.512 C 208.390 1026.764, 208.796 1025.467, 210.406 1025.159 C 212.224 1024.810, 212.280 1025.339, 211.632 1036.647 C 211.011 1047.474, 208.447 1062.922, 206.552 1067.250 C 205.896 1068.749, 206.347 1069, 209.704 1069 C 219.051 1069, 224.236 1056.370, 223.932 1034.347 C 223.844 1028.047, 224.062 1022.605, 224.414 1022.252 C 224.767 1021.900, 225.970 1022.526, 227.088 1023.643 C 228.892 1025.448, 229.113 1026.900, 229.054 1036.588 C 229.017 1042.590, 228.361 1050.650, 227.595 1054.500 C 226.828 1058.350, 226.343 1061.649, 226.515 1061.831 C 227.477 1062.846, 231.304 1059.340, 233.719 1055.232 C 236.474 1050.544, 236.500 1050.338, 236.500 1033 C 236.500 1011.282, 235.755 1009.304, 225.254 1003.111 C 217.965 998.814, 197.350 989.596, 192.487 988.459 C 187.402 987.270, 175.284 979.195, 172.972 975.454 C 170.060 970.743, 168.298 969.999, 163.500 971.456 M 190 982.393 C 190 983.159, 190.712 984.059, 191.582 984.393 C 194.565 985.538, 195.308 984.998, 193.500 983 C 191.387 980.665, 190 980.424, 190 982.393" stroke="none" fill="#4d94b2" fill-rule="evenodd"/><path d="M 0 109.503 L 0 219.006 3.377 215.253 C 5.649 212.729, 6.993 210.027, 7.482 207 C 8.696 199.483, 13.693 188.698, 17.765 184.807 C 22.805 179.990, 23.717 179.605, 37.369 176.547 C 56.120 172.347, 64.275 168.322, 69.897 160.493 C 72.791 156.464, 91.123 136.903, 105.500 122.502 C 108.250 119.748, 113.115 115.766, 116.310 113.654 C 123.639 108.809, 140.283 100.988, 149.750 97.940 C 153.737 96.657, 157 95.306, 157 94.939 C 157 92.619, 134.957 87.383, 126 87.575 C 118.337 87.739, 104.692 91.291, 100.652 94.173 C 97.795 96.211, 94.973 95.471, 96.455 93.073 C 98.304 90.082, 119.989 83, 127.300 83 C 128.890 83, 131.611 81.987, 133.346 80.750 C 136.201 78.714, 137.639 78.502, 148.500 78.520 C 155.100 78.531, 162.750 78.873, 165.500 79.279 L 170.500 80.019 164.867 74.759 C 161.769 71.867, 158.288 67.617, 157.131 65.316 C 155.974 63.015, 154.008 60.415, 152.763 59.539 C 149.081 56.948, 138.195 54.133, 124.485 52.226 C 115.968 51.041, 111.497 49.991, 111.202 49.107 C 110.715 47.644, 112.496 47.724, 132.182 50.053 C 141.783 51.189, 143.425 51.140, 148.408 49.573 C 156.021 47.178, 159.120 48.387, 168.865 57.555 C 176.532 64.767, 176.952 65.007, 185.395 66.975 C 190.159 68.086, 196.279 70.121, 198.995 71.498 C 201.711 72.874, 204.173 74, 204.467 74 C 206.093 74, 204.761 61.412, 202.500 55.404 C 199.477 47.373, 199.388 43.635, 202 34.500 C 205.382 22.672, 204.475 16.732, 197.983 8.196 C 194.278 3.325, 193.655 1, 196.056 1 C 196.571 1, 200.095 3.940, 203.887 7.532 C 212.183 15.393, 214.462 20.151, 215.844 32.500 C 217.116 43.867, 217.668 45.224, 223.917 52.334 C 226.737 55.542, 229.944 59.930, 231.043 62.084 C 232.142 64.238, 233.391 66, 233.819 66 C 235.190 66, 236.840 59.801, 238.477 48.500 C 240.642 33.561, 241.763 28.881, 243.784 26.352 C 244.728 25.171, 247.919 21.213, 250.877 17.557 C 253.834 13.901, 257.209 9.047, 258.377 6.769 C 260.893 1.860, 263.391 -0.009, 265.123 1.723 C 266.026 2.626, 265.477 4.483, 262.764 9.700 C 260.819 13.440, 258.088 19.875, 256.694 24 C 253.890 32.299, 250.198 53.532, 251.358 54.691 C 251.764 55.097, 253.850 53.377, 255.995 50.868 C 258.903 47.465, 261.427 45.748, 265.932 44.105 C 270.800 42.330, 272.552 41.058, 274.972 37.541 C 281.635 27.857, 288.052 24.304, 303.923 21.514 C 308.517 20.706, 314.262 19.083, 316.690 17.908 C 319.118 16.733, 321.402 16.069, 321.767 16.433 C 323.237 17.903, 319.983 20.636, 313.946 23 C 307.244 25.625, 299.317 32.568, 294.183 40.308 C 291.298 44.658, 286.604 46.986, 280.628 47.032 C 278.358 47.049, 275.712 47.661, 274.750 48.392 C 272.941 49.766, 272.309 55.455, 273.860 56.413 C 274.333 56.706, 278.461 55.136, 283.033 52.925 C 296.744 46.294, 302.179 44.845, 315.500 44.267 C 326.817 43.776, 327.853 43.895, 333.706 46.367 C 337.120 47.809, 342.054 50.347, 344.672 52.007 C 351.872 56.573, 355.085 57.205, 373 57.573 C 405.973 58.251, 419.212 62.447, 436.070 77.563 C 444.863 85.447, 453.025 91.468, 462.718 97.218 C 467.226 99.893, 469.948 102.157, 469.968 103.250 C 469.986 104.213, 469.434 105, 468.742 105 C 466.752 105, 458.167 100.195, 450 94.511 C 440.091 87.614, 435.473 87.004, 424.750 91.173 C 421.164 92.568, 421.280 93.471, 425.250 95.049 C 434.162 98.590, 441.096 105.901, 448.591 119.657 C 454.678 130.827, 457.013 133.660, 475.673 152.502 C 496.667 173.702, 498.294 176.295, 504.029 197.700 C 506.211 205.840, 508.704 214.975, 509.571 218 C 510.438 221.025, 511.327 225.075, 511.548 227 C 511.769 228.925, 512.494 232.629, 513.159 235.232 C 513.825 237.835, 514.080 240.253, 513.728 240.606 C 511.962 242.371, 510.122 239.354, 508.082 231.346 C 504.676 217.981, 502.253 213.285, 495 205.990 C 488.565 199.518, 481.712 194.954, 480.399 196.267 C 479.098 197.569, 479.450 228.287, 480.821 233.016 C 481.714 236.099, 484.753 240.648, 490.401 247.353 C 494.950 252.754, 500.428 260.397, 502.573 264.337 C 506.449 271.456, 506.474 271.575, 506.664 283.618 C 506.822 293.656, 507.204 296.388, 508.891 299.536 C 512.240 305.783, 513.063 312.564, 512.774 331.511 C 512.527 347.697, 512.327 349.508, 510.750 349.810 C 509.333 350.083, 508.996 349.420, 508.978 346.323 C 508.951 341.676, 506.150 335.316, 502.754 332.190 L 500.244 329.881 497.234 336.314 C 495.578 339.852, 492.598 344.546, 490.612 346.745 C 488.625 348.943, 487 351.166, 487 351.684 C 487 352.202, 488.390 353.948, 490.089 355.563 C 498.358 363.424, 500.181 371.048, 496.532 382.500 C 495.130 386.900, 493.493 393.200, 492.893 396.500 C 490.839 407.798, 489.376 412.500, 487.918 412.500 C 486.796 412.500, 486.570 411.022, 486.836 405.422 C 487.106 399.724, 486.741 397.427, 484.960 393.638 C 482.492 388.388, 474.662 380.210, 469.381 377.366 C 465.188 375.108, 464.893 375.439, 462.560 385.039 C 460.765 392.422, 460.932 394.745, 463.634 400 C 466.131 404.858, 466.539 415.232, 464.608 424.764 C 463.724 429.128, 463 434.080, 463 435.768 C 463 443.972, 459.846 444.046, 458.294 435.878 C 457.015 429.145, 452.156 418.500, 450.363 418.500 C 449.738 418.500, 447.059 421.425, 444.409 425 C 427.606 447.669, 399.420 474.718, 375.870 490.774 C 370.767 494.253, 370 495.535, 370 500.582 C 370 503.162, 370.429 504.005, 371.750 504.022 C 374.739 504.059, 382.349 507.967, 385.659 511.164 C 388.550 513.957, 389.101 514.126, 392.159 513.156 C 403.919 509.427, 423.365 509.110, 436.141 512.439 C 453.617 516.993, 465.314 522.819, 498 543.251 C 526.483 561.056, 531.534 564.243, 534.076 566.011 C 535.493 566.997, 540.443 569.701, 545.076 572.021 C 549.709 574.342, 556.428 577.942, 560.006 580.021 C 569.065 585.287, 580.356 591.279, 594.986 598.585 L 607.472 604.820 611.603 601.160 C 613.875 599.147, 617.554 596.262, 619.779 594.749 C 622.136 593.145, 624.697 590.191, 625.920 587.666 C 627.073 585.283, 629.295 581.619, 630.858 579.523 L 633.699 575.713 631.722 570.607 C 629.007 563.595, 628.809 541.434, 631.346 528.500 C 636.235 503.576, 637.158 495.665, 636.714 482.500 C 636.387 472.795, 635.736 467.889, 634.146 463.144 C 632.933 459.527, 632.276 455.749, 632.620 454.378 C 633.955 449.061, 642.068 445.805, 648.892 447.849 C 656.088 450.005, 663.952 458.839, 666.830 468 C 667.435 469.925, 668.392 476.967, 668.957 483.649 C 669.698 492.413, 670.811 498.229, 672.953 504.526 C 674.586 509.327, 676.134 513.468, 676.394 513.727 C 676.654 513.987, 678.439 513.680, 680.362 513.045 C 686.353 511.068, 700.659 510.049, 709.022 511.003 C 721.874 512.468, 728.915 517.309, 731.032 526.134 C 731.663 528.762, 731.885 532.245, 731.527 533.875 C 731.078 535.923, 731.513 538.085, 732.938 540.879 C 735.375 545.655, 735.598 552.329, 733.459 556.431 C 732.282 558.689, 732.168 560.044, 732.965 562.330 C 734.498 566.726, 734.228 576.658, 732.485 580.029 C 731.459 582.013, 731.176 584.249, 731.609 586.953 C 732.024 589.554, 731.670 592.712, 730.593 596.004 C 729.342 599.831, 729.171 601.966, 729.890 604.781 C 733.202 617.735, 732.019 628.281, 726.534 634.689 L 723.226 638.554 727.468 652.027 C 732.862 669.159, 734.279 678.796, 733.050 690 C 732.537 694.675, 731.468 700.611, 730.674 703.192 C 727.408 713.811, 710.672 734.217, 700.530 739.946 C 693.081 744.155, 681.602 747.970, 673.053 749.079 C 662.015 750.510, 643.025 750.253, 631 748.509 C 609.508 745.391, 600.042 742.290, 574.755 730.083 C 565.545 725.638, 557.787 722, 557.515 722 C 557.243 722, 549.928 718.580, 541.260 714.401 C 513.646 701.086, 497.748 694.795, 486.362 692.678 L 483.224 692.095 482.461 718.797 C 481.466 753.607, 483.862 795.767, 487.554 808.412 C 488.343 811.114, 489.683 822.589, 490.531 833.912 C 492.687 862.707, 494.163 871.279, 500.012 889 C 507.859 912.771, 511.921 934.911, 510.656 947.013 C 510.089 952.445, 507.178 962.767, 504.863 967.556 C 504.124 969.085, 504.636 972.546, 506.858 981.056 C 508.502 987.350, 510.313 996.325, 510.882 1001 C 511.927 1009.575, 512.965 1091.036, 512.988 1166.254 L 513 1207.009 624.750 1206.754 L 736.500 1206.500 736.747 603.250 L 736.994 -0 368.497 -0 L 0 0 0 109.503 M 0.483 110 C 0.483 170.225, 0.603 194.862, 0.750 164.750 C 0.897 134.637, 0.897 85.362, 0.750 55.250 C 0.603 25.137, 0.483 49.775, 0.483 110 M 254.474 173.950 C 256.764 178.378, 258.969 188.770, 258.985 195.215 C 258.998 200.213, 258.604 201.382, 255.845 204.524 C 254.110 206.500, 250.770 209.438, 248.425 211.052 C 240.669 216.388, 240.075 224.454, 246.648 235.202 C 249.930 240.568, 250.491 242.314, 250.436 247 C 250.382 251.676, 249.771 253.420, 246.358 258.639 C 237.943 271.509, 237.137 282.120, 242.958 303.394 C 244.598 309.386, 245.702 314.674, 245.411 315.144 C 243.953 317.504, 242.450 315.338, 239.027 305.947 C 237.610 302.056, 234.981 298.213, 230.252 293.114 C 223.263 285.579, 219 279.036, 219 275.843 C 219 273.416, 216.350 273.477, 215.035 275.934 C 213.457 278.883, 213.769 279.962, 216.500 281 C 217.875 281.523, 219 282.657, 219 283.521 C 219 284.772, 218.293 284.958, 215.511 284.436 C 210.967 283.584, 210.564 284.709, 211.648 295.236 C 212.391 302.441, 211.633 318.753, 210.361 322.928 C 209.678 325.171, 207.785 322.548, 204.641 315 C 203.152 311.425, 199.218 305.125, 195.899 301 C 192.579 296.875, 188.957 292.038, 187.850 290.250 C 186.743 288.462, 185.009 287, 183.996 287 C 181.470 287, 174.025 292.839, 171.193 297.042 C 168.655 300.808, 166.716 301.482, 166.196 298.779 C 165.780 296.618, 173.427 288.346, 178.935 285 C 183.433 282.268, 183.387 282.637, 180.409 273 C 179.169 268.986, 178.668 263.432, 178.557 252.443 L 178.405 237.387 175.035 233.193 C 173.182 230.887, 171.298 229, 170.849 229 C 170.401 229, 168.910 231.217, 167.537 233.926 C 161.226 246.381, 160.379 254.378, 164.607 261.592 C 167.655 266.794, 167.515 269.108, 163.521 279.500 C 161.253 285.398, 160.890 287.680, 161.210 294 C 161.533 300.383, 162.067 302.237, 164.795 306.446 C 168.572 312.274, 168.693 314.026, 165.886 322.282 C 164.114 327.493, 163.858 330.007, 164.309 337.805 C 164.604 342.923, 165.353 347.720, 165.972 348.466 C 166.729 349.378, 166.761 350.030, 166.069 350.457 C 164.833 351.221, 161 349.330, 161 347.956 C 161 347.421, 158.570 344.339, 155.600 341.109 C 148.236 333.099, 147.332 331.487, 146 324 C 144.222 314.004, 142.331 310.421, 137.045 307.029 C 130.218 302.648, 128.275 300.153, 126.558 293.562 C 125.093 287.938, 125.441 280.690, 127.532 273.304 C 127.813 272.312, 126.213 275.141, 123.976 279.591 C 120.815 285.882, 119.785 289.220, 119.348 294.591 C 118.791 301.424, 118.828 301.555, 122.637 306.500 C 127.801 313.204, 127.717 317.022, 122.089 331.500 C 118.318 341.202, 117.867 343.210, 118.272 348.513 C 118.573 352.455, 119.759 356.587, 121.716 360.513 C 125.860 368.827, 126.993 374.268, 127.064 386.199 C 127.097 391.864, 127.557 399.623, 128.086 403.441 C 128.876 409.148, 128.785 410.644, 127.574 411.855 C 126.413 413.016, 125.794 413.074, 124.652 412.126 C 122.337 410.205, 119.351 409.886, 104.516 409.975 C 88.131 410.074, 84.410 410.971, 79.490 416.010 C 74.499 421.122, 73.891 425.879, 77.357 432.717 C 80.290 438.505, 84.135 441.252, 91.500 442.821 C 101.500 444.950, 105.725 445.084, 113.116 443.504 C 117.177 442.637, 121.646 441.680, 123.047 441.379 C 125.301 440.894, 126.118 441.618, 130.147 447.666 C 150.497 478.212, 181.223 493.584, 253.500 509.379 C 263.344 511.531, 288.099 514, 299.823 514 C 319.344 514, 343.089 505.897, 366.938 491.096 C 386.505 478.952, 419.959 449.100, 432.798 432.326 C 445.732 415.428, 450.967 406.181, 455.628 392 C 458.686 382.697, 461.988 363.603, 461.995 355.177 C 461.999 349.696, 462.233 348.898, 463.750 349.187 C 464.712 349.370, 465.644 350.528, 465.820 351.760 C 466.947 359.662, 488.512 345.901, 494.020 333.766 C 497.897 325.223, 495.342 318.407, 486.647 314.095 L 481.797 311.690 475.148 313.930 C 467.501 316.507, 463.037 319.189, 457.597 324.471 C 454.806 327.182, 453.533 327.862, 452.966 326.946 C 451.916 325.246, 452.784 323.142, 456.143 319.245 C 459.295 315.587, 459.277 314.821, 455.729 302 C 454.353 297.030, 453.451 289.946, 453.055 281 C 452.372 265.608, 450.933 261.491, 443.559 253.827 C 438.254 248.315, 433.746 242.423, 431.552 238.135 C 430.262 235.615, 429.543 235.057, 428.689 235.911 C 427.835 236.765, 428.483 239.798, 431.274 247.993 C 433.323 254.010, 435 260.861, 435 263.217 C 435 268.459, 432.476 280.924, 431.145 282.255 C 429.553 283.847, 428.002 282.102, 427.976 278.691 C 427.946 274.613, 424.296 265.728, 420.289 259.976 C 418.573 257.514, 414.240 253.250, 410.659 250.500 C 407.078 247.750, 403.594 244.375, 402.917 243 C 402.241 241.625, 401.620 237.575, 401.537 234 C 401.292 223.432, 398.708 220.659, 387.648 219.092 C 383.916 218.564, 380.261 217.631, 379.524 217.020 C 376.395 214.423, 375 209.193, 375 200.059 C 375 189.262, 373.391 185.233, 366.784 179.491 C 361.902 175.246, 358.297 173.536, 352.331 172.633 L 348.162 172.002 349.187 175.717 C 349.752 177.760, 349.908 181.697, 349.536 184.466 C 347.659 198.434, 347.404 196.922, 352.847 204.108 C 355.599 207.742, 358.961 213.367, 360.316 216.608 C 363.030 223.097, 363.690 223.574, 374.730 227.034 C 381.625 229.194, 386.115 232.218, 384.631 233.703 C 384.251 234.082, 380.215 233.179, 375.661 231.696 C 371.107 230.213, 366.914 229, 366.343 229 C 365.719 229, 365.036 233.883, 364.631 241.250 C 364.260 247.988, 363.538 256.408, 363.025 259.963 C 362.512 263.517, 362.241 266.574, 362.423 266.757 C 362.605 266.939, 364.047 267.302, 365.627 267.564 C 372.889 268.769, 374.363 269.479, 379.680 274.331 C 387.678 281.631, 391.112 289.412, 391.774 301.731 C 392.420 313.746, 390.951 319.102, 385.519 324.533 C 381.539 328.514, 373.837 332, 369.022 332 C 362.256 332, 350.737 321.492, 347 311.910 C 344.899 306.523, 344.500 303.824, 344.500 295 C 344.500 285.724, 344.810 283.839, 347.156 278.835 C 348.683 275.578, 351.021 272.412, 352.656 271.387 C 354.220 270.407, 355.641 269.515, 355.814 269.405 C 356.348 269.065, 348.906 254.753, 345.723 250 C 342.475 245.149, 337.015 239, 335.955 239 C 335.596 239, 335.651 241.363, 336.076 244.250 C 336.501 247.137, 337.078 257.150, 337.358 266.500 C 337.638 275.850, 338.010 284.383, 338.184 285.462 C 338.370 286.616, 337.859 287.557, 336.944 287.748 C 335.837 287.978, 334.905 286.540, 333.715 282.765 C 330.915 273.883, 324.390 265.199, 315.121 258.020 C 309.964 254.025, 308 249.912, 308 243.109 C 308 237.034, 305.982 234.354, 296.635 228.016 C 289.050 222.872, 288 220.805, 288 211.020 C 288 202.889, 286.026 198.601, 277.500 188.219 C 271.512 180.927, 258.348 171, 254.666 171 C 253.086 171, 253.071 171.236, 254.474 173.950 M 27.200 202.966 C 15.720 207.743, 14.868 208.300, 7.196 216.043 L 1 222.297 1.110 254.399 C 1.182 275.734, 1.512 284.991, 2.091 282 C 3.625 274.090, 9.581 263.620, 17.279 255.302 C 31.942 239.459, 34.100 235.090, 35.886 217.633 C 36.418 212.437, 37.561 206.816, 38.426 205.142 C 40.483 201.164, 40.420 198.988, 38.250 199.048 C 37.288 199.075, 32.315 200.838, 27.200 202.966 M 363.345 275.500 C 364.092 280.949, 362.928 281.238, 359.910 276.354 L 357.656 272.708 354.401 276.259 C 350.525 280.489, 349.013 285.343, 349.006 293.583 C 348.997 302.484, 350.875 310.381, 354.396 316.255 C 358.792 323.588, 362.770 326, 370.468 326 C 376.082 326, 377.012 325.682, 380.748 322.484 C 385.866 318.103, 387.407 313.732, 387.441 303.500 C 387.497 286.600, 376.915 271, 365.396 271 C 362.809 271, 362.747 271.137, 363.345 275.500 M 1.225 305 C 1.201 320.396, 1.347 322.019, 2.440 318.500 C 3.425 315.327, 3.431 311.707, 2.467 301 L 1.252 287.500 1.225 305 M 366.250 292.201 C 363.357 292.963, 363 293.446, 363 296.594 C 363 301.421, 364.436 303.717, 367.933 304.485 C 373.981 305.814, 377.544 300.886, 374.621 295.235 C 372.827 291.764, 370.758 291.014, 366.250 292.201 M 14.476 303.500 C 9.610 310.756, 7 316.286, 7 319.343 C 7 320.594, 6.339 322.491, 5.532 323.559 C 4.724 324.626, 4.049 326.288, 4.032 327.250 C 4.014 328.212, 3.325 329, 2.500 329 C 1.169 329, 1 378.444, 1 768 L 1 1207 88.356 1207 L 175.711 1207 176.438 1199.250 C 178.119 1181.322, 178.988 1169.407, 179.957 1151 C 180.521 1140.275, 181.647 1126.100, 182.459 1119.500 C 183.271 1112.900, 184.415 1102.100, 185.002 1095.500 C 185.588 1088.900, 186.270 1082.245, 186.517 1080.712 C 187.155 1076.747, 184.706 1076.228, 180.812 1079.505 C 177.692 1082.130, 177.291 1082.199, 167.547 1081.798 C 157.626 1081.390, 157.350 1081.311, 145.500 1075.443 C 132.104 1068.809, 131.557 1068.068, 134.449 1060.493 C 137.132 1053.469, 138.865 1052.522, 149.338 1052.352 C 159.777 1052.183, 161.187 1051.281, 159.057 1046.139 C 158.352 1044.435, 154.113 1039.689, 149.637 1035.592 C 145.131 1031.467, 139.492 1025.038, 137 1021.182 C 133.295 1015.450, 131.910 1014.101, 129.160 1013.548 C 124.283 1012.566, 117.430 1005.810, 115.540 1000.120 C 114.159 995.963, 114.136 994.517, 115.344 988.128 L 116.718 980.862 108.100 975.067 C 98.549 968.645, 91.619 961.578, 88.913 955.500 C 87.933 953.300, 85.956 947, 84.518 941.500 C 80.633 926.634, 76.201 913.371, 72.489 905.500 C 58.845 876.570, 53.125 860.542, 49.791 841.903 C 47.925 831.470, 47.567 825.768, 47.536 806 C 47.513 790.729, 47.965 779.874, 48.829 775 C 50.894 763.343, 58.882 732.167, 61.511 725.500 C 62.813 722.200, 65.432 715.450, 67.332 710.500 C 77.025 685.251, 82.091 674.028, 101.639 634.500 C 120.565 596.229, 132.713 575.865, 143.739 563.929 C 148.896 558.345, 161.214 549.459, 169.967 545.009 C 175.924 541.980, 198.428 537.961, 213.966 537.150 L 226.432 536.500 229.364 532.128 C 231.289 529.257, 233.789 527.096, 236.648 525.832 C 239.041 524.773, 241 523.269, 241 522.491 C 241 521.712, 240.088 518.638, 238.974 515.660 C 237.057 510.537, 236.693 510.179, 232.224 509.008 C 220.467 505.929, 215.516 504.482, 201 499.885 C 184.672 494.714, 183 494.358, 183 496.055 C 183 496.635, 181.169 500.122, 178.931 503.805 C 175.020 510.240, 174.883 510.752, 175.391 517 C 175.682 520.575, 176.215 524.737, 176.576 526.250 C 177.627 530.647, 174.225 529.829, 172.418 525.250 C 170.256 519.774, 168.462 516.770, 161.917 507.667 C 155.890 499.284, 151 488.901, 151 484.489 C 151 483.120, 150.652 482, 150.226 482 C 149.800 482, 146.646 487.512, 143.218 494.250 C 135.889 508.649, 135.551 511.335, 140.153 518.554 C 143.973 524.546, 147.367 531.966, 146.627 532.707 C 145.337 533.996, 142.897 531.730, 140.516 527.031 C 139.105 524.247, 135.549 519.138, 132.614 515.678 C 122.873 504.195, 120.171 499.302, 119 491.025 C 117.770 482.320, 115.545 479.313, 107.721 475.777 C 104.777 474.447, 102.263 472.476, 101.413 470.832 C 99.626 467.376, 99.666 459.683, 101.499 454.538 C 103.272 449.559, 102.790 449.045, 99.588 452.500 C 97.009 455.283, 89.139 474.023, 88.799 478.191 C 88.696 479.461, 89.857 483.129, 91.379 486.343 C 94.186 492.270, 94.245 493.692, 91.643 492.693 C 90.208 492.142, 83 481.993, 83 480.523 C 83 480.100, 81.056 476.546, 78.680 472.627 C 76.304 468.707, 73.829 463.970, 73.180 462.101 C 71.433 457.069, 71.783 450.075, 74.028 445.128 C 76.004 440.773, 76.004 440.743, 74.037 437.559 C 72.950 435.802, 71.426 431.637, 70.648 428.304 C 69.334 422.672, 68.651 421.690, 60.965 414.373 C 52.165 405.995, 46.353 398.013, 45.330 392.901 C 44.767 390.086, 44.596 389.960, 43.603 391.638 C 42.067 394.231, 42.139 424.521, 43.690 428.728 C 44.551 431.063, 44.576 432.144, 43.778 432.637 C 42.126 433.658, 39.358 429.639, 38.646 425.185 C 38.300 423.023, 36.489 418.159, 34.622 414.377 C 26.611 398.147, 22 384.435, 22 376.843 C 22 374.758, 23.350 367.780, 25 361.337 C 26.650 354.893, 28 347.409, 28 344.705 C 28 338.649, 25.844 330.086, 22.458 322.688 C 20.546 318.514, 19.720 314.610, 19.198 307.298 L 18.500 297.500 14.476 303.500 M 298.090 318.920 C 296.929 319.657, 296.898 320.340, 297.912 322.788 C 299.364 326.292, 305.139 329.649, 316 333.303 C 330.156 338.064, 332.848 340.370, 333.493 348.285 C 334.224 357.262, 327.393 367.015, 317 371.833 C 310.095 375.034, 299.374 375.463, 294.096 372.750 C 292.224 371.788, 290.122 371, 289.425 371 C 288.728 371, 286.103 368.945, 283.591 366.433 C 276.727 359.569, 274.428 363.501, 281.158 370.596 C 288.078 377.892, 300.335 381.126, 311.370 378.566 C 328.297 374.641, 337.378 364.335, 337.424 349 C 337.460 336.598, 334.961 334.299, 313.500 326.998 C 307.046 324.803, 303.793 323.100, 302 320.981 C 300.220 318.876, 299.094 318.282, 298.090 318.920 M 204.892 348.281 C 197.240 351.529, 193.196 354.159, 188.616 358.866 C 186.065 361.488, 184.944 363.413, 185.351 364.473 C 186.064 366.330, 188.448 365.409, 193.234 361.429 C 199.510 356.211, 212.994 352.934, 229.246 352.677 C 238.591 352.530, 240.525 352.235, 240.778 350.920 C 241.237 348.527, 234.338 346.888, 221.582 346.360 C 211.555 345.945, 209.966 346.128, 204.892 348.281 M 229.438 359.868 C 223.490 361.898, 218 365.566, 218 367.509 C 218 369.650, 219.640 370.139, 221.064 368.423 C 222.849 366.272, 226.611 364.510, 232.487 363.072 C 237.875 361.754, 240.299 360.293, 239.430 358.887 C 238.621 357.578, 235.147 357.919, 229.438 359.868 M 243 409.291 C 239.593 411.010, 230.921 422.630, 231.642 424.511 C 232.535 426.836, 233.377 426.338, 236.826 421.445 L 240.036 416.890 242.850 418.893 C 246.832 421.729, 255.141 424.847, 263.273 426.557 C 272.032 428.400, 294.933 428.675, 305.500 427.065 C 327.625 423.694, 354.680 414.882, 356.362 410.498 C 357.253 408.178, 353.644 408.640, 347.820 411.591 C 341.701 414.692, 314.895 421.493, 303.026 422.956 C 282.416 425.496, 264.670 423.785, 251.107 417.951 C 244.272 415.010, 243.027 413.401, 246.398 411.864 C 249.343 410.523, 249.903 407.992, 247.250 408.015 C 246.287 408.023, 244.375 408.597, 243 409.291 M 319.517 449.979 C 314.917 453.011, 303.791 455.189, 296.889 454.408 C 291.809 453.833, 291 453.969, 291 455.396 C 291 459.374, 302.920 460.195, 313.453 456.942 C 320.241 454.845, 324 452.193, 324 449.500 C 324 447.520, 323.103 447.615, 319.517 449.979 M 637.485 452.658 C 636.513 453.630, 636.048 455.181, 636.360 456.408 C 636.653 457.559, 637.868 462.325, 639.060 467 C 640.988 474.563, 641.171 477.319, 640.720 492 C 640.302 505.577, 639.625 511.246, 636.901 524 C 634.135 536.947, 633.604 541.476, 633.679 551.500 C 633.786 565.896, 635.672 571.958, 642.742 580.638 L 647.346 586.290 649.572 581.244 C 651.586 576.682, 655.096 573.762, 656.672 575.339 C 656.959 575.625, 655.931 578.929, 654.388 582.680 C 651.912 588.700, 651.578 590.790, 651.541 600.500 C 651.500 611.369, 651.548 611.595, 655.500 619.500 C 660.185 628.870, 661.383 630.094, 669.931 634.239 C 675.456 636.919, 677.512 637.368, 684.524 637.429 C 689.226 637.470, 693.283 637.019, 694.093 636.365 C 694.867 635.741, 696.966 634.917, 698.758 634.534 C 700.585 634.144, 704.397 631.662, 707.436 628.885 C 715.022 621.951, 721.261 608.869, 716.250 610.400 C 703.504 614.296, 694.499 614.909, 684.514 612.561 C 679.857 611.465, 677.774 610.330, 675.132 607.447 C 671.817 603.829, 671.750 603.585, 672.338 597.279 C 672.862 591.673, 672.615 590.173, 670.471 585.942 C 667.831 580.733, 667.451 577.400, 668.917 572.291 C 669.631 569.801, 669.410 568.265, 667.917 565.336 C 665.540 560.675, 665.549 557.997, 667.963 551.002 C 669.665 546.071, 669.704 545.330, 668.342 543.825 C 664.189 539.236, 664.928 526.616, 669.680 520.968 L 672.214 517.957 669.111 508.371 C 666.996 501.837, 665.671 495.080, 664.949 487.143 C 663.084 466.631, 660.019 459.991, 649.027 452.651 C 645.828 450.515, 639.625 450.518, 637.485 452.658 M 353.475 503.847 C 339.315 511.107, 325.715 515.664, 312.231 517.664 C 302.980 519.037, 299.500 519.088, 287 518.033 C 279.025 517.360, 265.797 515.718, 257.604 514.384 C 249.412 513.050, 242.560 512.107, 242.378 512.289 C 242.196 512.470, 242.952 515, 244.058 517.911 C 245.476 521.641, 246.078 525.671, 246.100 531.567 C 246.130 539.664, 246.229 540.015, 249.208 542.522 C 257.845 549.789, 271.645 553.858, 290.505 554.699 C 311.213 555.622, 328.983 551.769, 346.945 542.459 C 356.436 537.539, 369.602 526.774, 369.320 524.164 C 369.221 523.249, 368.164 519.800, 366.971 516.500 C 365.353 512.021, 364.903 508.915, 365.199 504.250 C 365.417 500.813, 365.348 498.044, 365.047 498.097 C 364.746 498.150, 359.539 500.738, 353.475 503.847 M 692.500 515.698 C 690.850 515.917, 686.715 517.002, 683.311 518.109 C 673.211 521.394, 666.743 530.751, 669.853 537.577 C 670.819 539.697, 671.615 539.999, 676.229 539.990 C 679.128 539.984, 686.617 539.084, 692.871 537.990 C 699.741 536.788, 708.738 536, 715.602 536 C 726.893 536, 726.966 535.985, 727.591 533.493 C 727.937 532.115, 727.927 529.423, 727.568 527.512 C 725.959 518.932, 709.615 513.425, 692.500 515.698 M 702 542.008 C 696.775 542.403, 689.435 543.463, 685.688 544.363 C 681.941 545.263, 677.851 546, 676.598 546 C 674.151 546, 672.880 548.019, 671.051 554.811 C 669.621 560.120, 670.948 563.438, 675.078 564.877 C 682.637 567.513, 707.562 564.845, 721.561 559.903 C 728.448 557.472, 731 554.475, 731 548.818 C 731 542.594, 729.275 541.441, 719.845 541.361 C 715.255 541.322, 707.225 541.613, 702 542.008 M 722 564.940 C 711.665 568.288, 707.490 569.016, 692 570.169 C 683.475 570.803, 675.938 571.755, 675.250 572.283 C 673.499 573.631, 673.689 582.111, 675.529 584.739 C 676.371 585.940, 678.733 587.387, 680.779 587.956 C 689.640 590.416, 712.907 588.129, 720.999 584.001 C 722.996 582.982, 726.063 580.809, 727.815 579.173 C 730.578 576.592, 731 575.532, 731 571.170 C 731 567.933, 730.440 565.583, 729.429 564.571 C 728.564 563.707, 727.777 563.036, 727.679 563.079 C 727.580 563.122, 725.025 563.960, 722 564.940 M 549.559 582.250 C 549.941 583.487, 550.981 585.850, 551.871 587.500 C 553.129 589.833, 553.564 594.202, 553.827 607.144 C 554.123 621.731, 553.891 624.882, 551.945 632.644 C 544.513 662.284, 532.915 678.274, 508.498 692.540 C 506.996 693.418, 507.793 694.033, 513.609 696.483 C 517.399 698.080, 525.900 701.938, 532.500 705.056 C 539.100 708.175, 547.875 712.202, 552 714.005 C 556.125 715.809, 567.715 721.252, 577.756 726.101 C 605.795 739.641, 621.110 743.715, 651.227 745.645 C 674.711 747.149, 695.914 740.562, 708.158 727.957 C 713.414 722.546, 721.445 712.081, 723.473 708 C 725.057 704.814, 724.642 705.055, 718.856 710.680 C 710.935 718.382, 699.427 725.226, 689.836 727.939 C 685.801 729.080, 680.165 730.700, 677.311 731.539 C 660.456 736.492, 643.007 732.784, 627.500 720.954 C 620.727 715.787, 613.115 708.442, 608.896 703 C 600.142 691.711, 592.892 671.610, 591.222 654 L 590.417 645.500 588.167 655 C 586.930 660.225, 585.674 667.200, 585.375 670.500 C 584.626 678.768, 584.335 679.523, 582.488 677.990 C 580.511 676.349, 580.547 668.107, 582.575 658.292 C 584.605 648.461, 590.704 627.472, 592.590 623.826 C 597.388 614.548, 579.401 631.087, 571.892 642.858 C 570.363 645.255, 568.820 648.541, 568.465 650.161 C 567.597 654.110, 565.575 653.228, 565.193 648.733 C 564.686 642.759, 569.608 635.028, 580.730 624.330 C 587.470 617.846, 592.193 615, 596.213 615 C 597.746 615, 599.453 613.879, 600.900 611.921 C 602.152 610.228, 603.024 608.704, 602.838 608.535 C 602.652 608.366, 597.100 605.473, 590.500 602.106 C 577.842 595.649, 559.882 585.847, 554 582.186 C 549.570 579.428, 548.693 579.441, 549.559 582.250 M 723.452 588.157 C 718.414 590.861, 715.757 591.607, 704.049 593.606 C 695.485 595.068, 691.050 595.094, 680.587 593.746 C 678.084 593.424, 676.341 599.259, 677.911 602.705 C 681.014 609.514, 702.694 610.333, 716.320 604.154 C 725.276 600.093, 731.084 591.829, 728.187 587.268 C 727.592 586.332, 726.452 586.546, 723.452 588.157 M 468.500 691.066 C 449.173 701.936, 415.216 717.079, 398.315 722.366 C 371.619 730.717, 341.899 736.885, 318.500 738.930 C 301.603 740.408, 265.333 740.201, 247 738.523 C 230.595 737.021, 207.114 733.010, 199.966 730.488 C 197.613 729.658, 195.463 729.204, 195.187 729.480 C 194.911 729.755, 194.384 734.598, 194.015 740.240 C 193.351 750.383, 195.581 774.459, 198.115 784.500 C 198.670 786.700, 199.373 796.375, 199.677 806 C 200.109 819.662, 199.858 825.913, 198.534 834.500 C 197.602 840.550, 196.603 847.098, 196.314 849.051 L 195.790 852.601 207.838 858.301 C 214.464 861.435, 220.496 864, 221.243 864 C 221.989 864, 223.028 864.394, 223.550 864.876 C 225.074 866.282, 243.623 872.555, 254.500 875.344 C 277.552 881.255, 298.367 883.979, 320.589 883.991 C 345.202 884.005, 377.076 880.307, 395 875.358 C 412.992 870.389, 444.869 858.797, 453.994 853.905 C 454.822 853.460, 459.325 851.308, 464 849.122 C 468.675 846.935, 475.425 843.392, 479 841.247 L 485.500 837.347 485.196 827.423 C 485.028 821.966, 484.011 813.452, 482.936 808.505 C 479.559 792.961, 477.873 761.070, 478.008 715.250 C 478.055 699.163, 477.960 686.001, 477.797 686.002 C 477.634 686.004, 473.450 688.282, 468.500 691.066 M 100.116 693.064 C 87.132 695.375, 79.760 698.696, 75.830 704.005 C 72.721 708.204, 63.892 732.804, 60.578 746.500 C 59.646 750.350, 58.259 755.750, 57.496 758.500 C 56.732 761.250, 55.071 768.675, 53.804 775 C 50.583 791.076, 50.650 819.421, 53.953 838.500 C 56.005 850.356, 62.158 872.337, 63.979 874.314 C 64.391 874.762, 66.626 872.744, 68.946 869.830 C 76.161 860.768, 89.952 852.078, 107.767 845.365 C 122.375 839.862, 142.710 838.506, 156.886 842.090 C 161.432 843.240, 165.389 843.944, 165.679 843.655 C 167.393 841.940, 161.554 819.926, 157.034 811.066 C 152.291 801.770, 144.830 793.895, 138.750 791.767 C 137.238 791.237, 136 790.114, 136 789.271 C 136 786.754, 142.126 788.375, 147.673 792.360 C 150.371 794.299, 154.135 798.048, 156.039 800.692 L 159.500 805.500 159.828 802.629 C 160.200 799.378, 157.225 786.257, 155.936 785.460 C 155.471 785.173, 153.878 782.710, 152.396 779.986 C 150.913 777.262, 148.629 774.331, 147.318 773.473 C 144.512 771.634, 145.216 769.629, 148.334 770.578 C 151.253 771.466, 154.044 774.016, 155.090 776.750 C 155.563 777.987, 156.588 779, 157.367 779 C 158.146 779, 159.082 780.190, 159.447 781.645 C 160.335 785.181, 161.322 783.847, 163.949 775.560 C 166.111 768.742, 171.291 758.230, 180.403 742.171 L 185.007 734.057 183.348 729.779 C 177.512 714.725, 156.928 699.649, 135 694.366 C 127.146 692.474, 107.543 691.742, 100.116 693.064 M 185.357 743.363 C 176.698 757.517, 169.585 772.721, 165.412 786 C 163.355 792.544, 164.446 813.475, 167.550 827 C 169.067 833.612, 170.344 843.610, 170.998 854 C 172.727 881.459, 175.733 895.461, 184.364 916.262 C 186.364 921.081, 188 926.117, 188 927.453 C 188 928.789, 188.387 930.121, 188.859 930.413 C 189.787 930.987, 191.446 914.256, 191.427 904.500 C 191.421 901.200, 190.800 891.265, 190.046 882.423 C 188.695 866.570, 188.712 866.125, 191.288 850.423 C 195.758 823.185, 196.118 818.590, 195.052 802.405 C 194.513 794.207, 193.431 783.900, 192.648 779.500 C 191.260 771.701, 189.167 752.172, 188.722 742.863 L 188.500 738.225 185.357 743.363 M 163.500 971.456 C 158.946 972.839, 151.788 976.354, 147.786 979.173 C 145.111 981.058, 145.095 981.132, 146.687 984.471 C 148.642 988.569, 147.612 991.784, 142.054 998.930 C 138.885 1003.005, 138.500 1004.149, 138.500 1009.500 C 138.500 1015.027, 138.849 1015.973, 142.928 1021.500 C 145.363 1024.800, 148.513 1028.557, 149.928 1029.850 C 160.332 1039.355, 164.004 1043.518, 164.508 1046.381 C 166.315 1056.648, 160.574 1069.855, 158.233 1060.818 C 157.448 1057.791, 156.951 1057.441, 152.437 1056.745 C 143.232 1055.325, 137 1058.042, 137 1063.474 C 137 1066.230, 138.118 1066.948, 151.331 1072.677 C 157.714 1075.445, 161.270 1076.331, 167.598 1076.727 C 175.623 1077.230, 175.715 1077.209, 177.686 1074.367 C 181.329 1069.115, 182.917 1061.970, 183.878 1046.500 C 184.446 1037.374, 184.675 1036.500, 186.500 1036.500 C 188.224 1036.500, 188.538 1037.259, 188.778 1042 C 189.035 1047.094, 187.063 1063.881, 185.459 1070.250 C 184.796 1072.882, 184.927 1073, 188.497 1073 C 194.286 1073, 199.541 1069.497, 201.854 1064.098 C 204.107 1058.838, 206.755 1045.197, 207.791 1033.512 C 208.390 1026.764, 208.796 1025.467, 210.406 1025.159 C 212.224 1024.810, 212.280 1025.339, 211.632 1036.647 C 211.011 1047.474, 208.447 1062.922, 206.552 1067.250 C 205.896 1068.749, 206.347 1069, 209.704 1069 C 219.051 1069, 224.236 1056.370, 223.932 1034.347 C 223.844 1028.047, 224.062 1022.605, 224.414 1022.252 C 224.767 1021.900, 225.970 1022.526, 227.088 1023.643 C 228.892 1025.448, 229.113 1026.900, 229.054 1036.588 C 229.017 1042.590, 228.361 1050.650, 227.595 1054.500 C 226.828 1058.350, 226.343 1061.649, 226.515 1061.831 C 227.477 1062.846, 231.304 1059.340, 233.719 1055.232 C 236.474 1050.544, 236.500 1050.338, 236.500 1033 C 236.500 1011.282, 235.755 1009.304, 225.254 1003.111 C 217.965 998.814, 197.350 989.596, 192.487 988.459 C 187.402 987.270, 175.284 979.195, 172.972 975.454 C 170.060 970.743, 168.298 969.999, 163.500 971.456 M 190 982.393 C 190 983.159, 190.712 984.059, 191.582 984.393 C 194.565 985.538, 195.308 984.998, 193.500 983 C 191.387 980.665, 190 980.424, 190 982.393 M 356.720 1120 C 356.343 1121.375, 354.882 1128.800, 353.473 1136.500 C 352.065 1144.200, 349.829 1155.225, 348.505 1161 C 344.368 1179.052, 340.213 1198.323, 339.505 1202.750 L 338.824 1207 348.912 1207 L 359 1207 358.894 1171.250 C 358.785 1134.469, 357.977 1115.417, 356.720 1120" stroke="none" fill="#faefdf" fill-rule="evenodd"/></svg>