<?xml version="1.0" standalone="no"?>
<!DOCTYPE svg PUBLIC "-//W3C//DTD SVG 20010904//EN"
 "http://www.w3.org/TR/2001/REC-SVG-20010904/DTD/svg10.dtd">
<svg version="1.0" xmlns="http://www.w3.org/2000/svg"
 width="736.000000pt" height="1207.000000pt" viewBox="0 0 736.000000 1207.000000"
 preserveAspectRatio="xMidYMid meet">
<metadata>
Created by potrace 1.16, written by Peter Selinger 2001-2019
</metadata>
<g transform="translate(0.000000,1207.000000) scale(0.100000,-0.100000)"
fill="#000000" stroke="none">
<path d="M2614 12043 c-9 -9 -23 -33 -31 -52 -8 -19 -45 -70 -83 -115 -69 -82
-100 -147 -100 -209 -1 -84 -42 -267 -61 -267 -4 0 -20 21 -35 48 -15 26 -47
68 -71 95 -48 52 -73 101 -79 157 -17 157 -21 171 -71 239 -20 26 -28 30 -35
20 -8 -11 -9 -10 -5 2 7 21 -65 92 -88 87 -14 -3 -13 -7 10 -33 82 -94 93
-152 57 -293 l-26 -104 32 -97 c32 -98 39 -154 23 -180 -8 -12 -19 -10 -68 12
-33 14 -90 34 -128 42 -86 20 -110 33 -160 85 -94 99 -137 115 -228 84 -42
-14 -56 -14 -192 5 -171 25 -155 23 -155 11 0 -5 15 -11 33 -14 340 -53 392
-70 423 -139 21 -45 48 -77 107 -121 21 -16 34 -32 30 -36 -4 -4 -51 -1 -103
7 -138 21 -227 15 -277 -20 -23 -16 -52 -27 -72 -27 -58 0 -234 -51 -270 -78
-42 -31 -25 -42 21 -14 44 27 202 62 276 62 69 0 164 -20 246 -51 54 -21 73
-39 41 -39 -54 0 -330 -124 -425 -191 -54 -38 -361 -350 -450 -458 -72 -86
-152 -126 -322 -161 -124 -25 -154 -38 -205 -91 -45 -47 -93 -157 -93 -212 0
-21 -12 -45 -40 -78 -43 -51 -47 -59 -27 -58 6 0 32 24 57 53 46 54 124 109
176 125 16 5 59 21 96 35 78 30 83 25 48 -52 -11 -24 -22 -66 -25 -95 -14
-123 -29 -195 -48 -232 -23 -46 -101 -146 -147 -190 -47 -44 -104 -132 -128
-198 -25 -65 -28 -137 -12 -287 9 -80 8 -105 -6 -158 -12 -44 -14 -66 -7 -73
13 -13 43 42 43 77 0 32 28 102 57 141 12 17 23 36 23 41 0 4 11 19 25 32 28
26 29 23 25 -47 -2 -56 17 -146 46 -210 56 -122 60 -219 15 -383 -25 -91 -27
-182 -5 -258 18 -65 95 -247 124 -295 11 -18 20 -39 20 -47 0 -35 22 -90 35
-90 15 0 15 7 -6 113 -19 99 -4 317 22 317 5 0 13 -19 19 -42 17 -62 47 -103
153 -209 87 -87 95 -98 101 -142 3 -26 16 -65 28 -86 22 -38 22 -40 5 -76 -35
-73 -18 -192 37 -270 11 -16 33 -52 48 -80 15 -27 37 -67 48 -87 11 -21 27
-38 35 -38 19 0 19 -1 -10 67 -23 51 -25 63 -15 105 5 26 23 78 40 114 16 37
30 71 30 77 0 13 48 57 62 57 6 0 7 -7 3 -17 -4 -10 -12 -46 -18 -80 -15 -83
4 -126 66 -153 43 -19 117 -84 117 -104 0 -6 4 -39 9 -73 9 -61 36 -112 100
-189 57 -67 74 -91 109 -151 20 -35 40 -63 44 -63 22 0 -2 63 -62 157 -17 26
-30 59 -30 74 0 33 105 258 135 287 10 10 25 -20 25 -52 0 -40 53 -145 112
-224 45 -58 81 -125 101 -184 12 -35 29 -20 23 20 -20 117 -18 145 13 197 17
28 37 65 46 83 8 17 19 32 24 32 6 0 46 -13 91 -30 44 -16 138 -46 208 -65
256 -72 232 -61 252 -108 30 -70 33 -97 13 -103 -52 -17 -87 -43 -110 -81
l-25 -43 -89 0 c-50 0 -154 -11 -235 -25 -185 -32 -189 -33 -249 -63 -137 -68
-263 -178 -357 -312 -95 -135 -264 -455 -478 -905 -97 -204 -246 -578 -276
-693 -100 -375 -121 -518 -111 -760 14 -329 67 -528 238 -889 50 -105 87 -212
134 -383 44 -159 58 -189 118 -252 44 -45 73 -67 165 -126 39 -24 43 -30 37
-57 -19 -96 -18 -143 5 -189 25 -52 71 -92 123 -107 27 -7 44 -24 81 -79 25
-38 65 -87 88 -107 114 -103 145 -145 136 -190 -3 -16 -14 -18 -95 -18 -77 0
-94 -3 -113 -20 -38 -35 -68 -116 -51 -143 4 -6 61 -37 126 -68 119 -57 121
-57 217 -58 85 -1 100 2 127 22 51 38 64 31 57 -31 -23 -188 -59 -613 -66
-782 -9 -179 -16 -260 -36 -418 l-7 -47 814 2 813 3 18 95 c10 52 38 183 62
290 24 107 57 263 72 345 15 83 31 154 35 158 13 16 28 -356 29 -730 l0 -163
767 0 766 0 -6 683 c-14 1363 -15 1389 -69 1609 -17 69 -19 92 -10 110 17 34
38 105 52 172 22 106 -18 345 -96 581 -64 193 -74 237 -84 380 -17 244 -31
380 -45 435 -36 142 -56 431 -54 770 3 406 2 404 22 408 45 9 317 -93 517
-193 58 -29 132 -64 165 -78 33 -14 139 -63 235 -110 174 -84 348 -147 458
-166 215 -37 454 -38 596 -1 134 34 221 82 304 169 86 89 166 205 189 276 9
29 18 98 20 165 5 129 -11 219 -67 370 -16 46 -30 91 -30 100 0 9 14 29 30 45
17 16 35 45 40 64 15 54 12 183 -5 231 -13 38 -13 45 2 73 10 20 17 58 18 102
1 39 7 83 13 98 15 37 15 102 -2 148 -10 28 -10 40 -1 53 25 33 26 105 4 155
-14 31 -21 63 -20 99 4 105 -30 152 -136 192 -72 27 -249 30 -328 6 -78 -24
-80 -23 -109 50 -26 63 -35 115 -55 294 -12 104 -37 165 -92 225 -55 59 -86
75 -148 75 -39 0 -56 -6 -81 -27 -28 -23 -31 -31 -27 -67 3 -23 12 -66 21 -96
11 -37 16 -95 16 -183 0 -138 -7 -199 -48 -407 -33 -173 -35 -343 -4 -435 l21
-60 -39 -60 c-21 -33 -41 -70 -45 -82 -3 -13 -27 -37 -53 -54 -26 -18 -64 -48
-84 -67 l-37 -35 -73 33 c-40 18 -152 76 -248 128 -96 53 -224 122 -283 154
-60 31 -238 138 -395 236 -525 327 -625 373 -849 392 -91 8 -127 6 -232 -11
l-124 -21 -21 25 c-24 28 -78 58 -120 66 -41 9 -50 28 -37 76 10 34 25 50 104
107 213 153 478 408 617 592 41 55 80 100 85 100 28 -1 81 -125 87 -204 6 -68
23 -27 44 101 24 143 20 248 -10 294 -20 31 -20 71 0 148 14 56 44 117 44 90
0 -6 14 -16 32 -24 44 -18 121 -95 148 -149 20 -37 23 -58 22 -123 -2 -59 1
-78 10 -75 14 5 24 42 39 136 5 34 21 96 34 137 42 127 31 185 -50 281 l-45
52 42 49 c23 26 54 76 70 111 15 34 30 62 32 62 1 0 14 -9 27 -21 33 -29 69
-107 69 -152 0 -27 4 -37 13 -35 9 4 13 50 15 178 3 182 -6 243 -48 335 -16
35 -20 65 -20 148 0 57 -5 119 -12 138 -18 52 -73 135 -153 229 -83 99 -91
117 -104 230 -10 84 -1 273 13 287 8 8 72 -24 96 -47 9 -8 29 -26 45 -40 67
-57 101 -116 126 -221 24 -100 47 -155 59 -143 8 8 -1 61 -31 179 -5 22 -19
76 -29 120 -44 179 -78 284 -112 346 -27 47 -87 115 -225 254 -148 150 -196
204 -222 255 -88 169 -165 257 -253 291 -23 9 -44 21 -46 27 -7 23 61 46 138
47 73 0 77 -1 130 -42 112 -84 220 -135 220 -104 0 5 -26 24 -57 42 -32 18
-76 47 -98 65 -22 17 -58 43 -80 57 -22 14 -65 49 -95 77 -163 153 -357 219
-600 205 -125 -7 -240 12 -310 52 -143 83 -158 88 -265 87 -143 -2 -215 -18
-338 -76 -59 -27 -114 -47 -122 -44 -18 7 -20 56 -2 78 7 10 40 21 87 27 80
12 85 15 144 101 37 54 117 117 166 130 38 10 107 59 84 60 -6 0 -29 -7 -50
-16 -22 -9 -89 -27 -150 -39 -149 -30 -196 -57 -256 -145 -27 -41 -44 -54 -91
-72 -39 -16 -73 -38 -102 -70 -57 -60 -64 -64 -60 -31 1 15 -1 38 -6 51 -5 14
-5 21 0 18 5 -4 12 16 16 43 4 28 15 83 25 122 11 40 17 76 14 81 -3 4 -1 8 3
8 5 0 17 24 27 53 10 28 29 66 42 84 25 33 30 58 15 68 -5 3 -17 -3 -27 -12z
m18 -1721 c82 -54 199 -179 229 -246 11 -25 19 -65 19 -101 0 -106 10 -125
101 -190 91 -65 109 -94 109 -177 l0 -52 89 -86 c99 -94 132 -139 160 -220 26
-73 47 -81 36 -14 -4 27 -9 99 -10 159 -1 61 -6 152 -10 203 -8 100 -2 111 38
69 34 -35 67 -77 67 -83 0 -3 9 -18 19 -33 11 -15 36 -60 57 -101 28 -57 34
-75 23 -79 -34 -11 -78 -70 -94 -126 -26 -89 -17 -230 20 -313 34 -76 117
-158 170 -168 83 -15 173 24 229 99 19 26 21 42 21 160 0 122 -2 136 -26 188
-50 106 -141 179 -224 179 -40 0 -40 0 -25 112 5 40 12 120 14 178 5 120 0
117 106 78 86 -31 90 -32 90 -15 0 17 -68 51 -137 68 -71 18 -77 22 -102 86
-13 32 -44 85 -69 117 -51 68 -65 111 -50 163 5 21 8 68 6 106 l-4 69 41 -4
c55 -7 103 -31 154 -78 63 -59 81 -107 81 -222 0 -88 2 -99 25 -126 20 -24 35
-30 79 -35 70 -7 123 -32 141 -68 9 -15 15 -55 15 -89 0 -79 14 -103 99 -170
40 -32 82 -76 100 -105 32 -52 71 -155 71 -187 0 -10 5 -18 10 -18 18 0 30 48
36 139 5 78 3 94 -25 176 -30 88 -40 165 -22 165 5 0 24 -26 42 -57 18 -31 61
-87 95 -125 94 -102 105 -131 114 -306 4 -81 15 -169 23 -197 9 -27 18 -70 22
-95 5 -39 2 -49 -19 -74 -27 -31 -42 -64 -32 -74 4 -3 25 12 49 34 60 57 67
61 143 89 82 30 96 30 151 5 83 -37 105 -122 57 -218 -40 -80 -147 -165 -237
-187 -21 -6 -27 -2 -39 22 -20 42 -32 26 -35 -51 -6 -143 -48 -331 -102 -455
-52 -118 -181 -298 -314 -438 -75 -79 -257 -243 -341 -307 -27 -20 -67 -52
-90 -70 -111 -88 -330 -201 -471 -244 -219 -66 -214 -65 -352 -58 -233 13
-430 44 -663 106 -63 17 -142 37 -175 45 -164 40 -409 147 -544 238 -106 71
-150 114 -243 239 -69 91 -86 108 -103 103 -121 -39 -211 -45 -305 -20 -92 24
-118 44 -151 111 -27 55 -29 66 -20 101 14 51 66 101 126 119 78 23 293 17
382 -11 l22 -7 -5 163 c-6 201 -17 266 -57 344 -50 96 -50 164 2 310 54 154
53 178 -5 248 -44 53 -29 180 37 300 17 32 33 57 35 54 2 -2 -4 -41 -13 -88
-15 -78 -15 -88 1 -143 18 -62 41 -89 115 -140 47 -31 57 -51 76 -146 19 -93
29 -115 83 -173 26 -29 56 -64 65 -79 20 -31 54 -40 42 -10 -30 79 -28 167 6
284 l20 66 -23 42 c-13 24 -30 54 -38 69 -26 47 -18 154 20 254 l33 89 -31 61
c-37 72 -39 103 -13 178 23 67 69 159 79 159 12 -1 82 -97 84 -116 1 -11 -1
-55 -5 -99 -9 -87 9 -219 38 -289 9 -21 15 -39 13 -40 -103 -59 -168 -124
-168 -166 0 -19 2 -20 15 -10 8 7 15 18 15 25 0 25 116 115 148 115 5 0 25
-24 45 -52 20 -29 59 -82 87 -118 27 -36 62 -95 78 -132 15 -37 32 -68 38 -68
9 0 14 58 17 195 0 17 -3 67 -6 113 l-6 82 39 0 c45 0 53 16 15 30 -31 12 -31
27 -2 64 27 33 47 28 47 -11 0 -36 33 -87 104 -161 50 -51 67 -78 91 -144 17
-45 36 -83 43 -86 17 -5 15 9 -18 138 -51 195 -38 322 43 431 28 39 32 51 32
109 0 55 -5 73 -31 115 -52 86 -58 109 -44 161 11 37 25 56 79 101 37 31 71
69 78 87 15 40 6 143 -19 216 -32 91 -31 90 -15 90 8 0 48 -22 89 -48z m1105
-984 c49 -29 98 -99 123 -174 27 -81 25 -207 -4 -267 -38 -78 -148 -117 -222
-79 -75 39 -116 100 -140 210 -18 87 -18 136 1 200 14 47 66 122 85 122 4 0
15 -18 25 -40 19 -42 42 -56 30 -17 -18 59 -18 65 6 70 31 5 54 -1 96 -25z
m2771 -1803 c50 -34 98 -97 116 -153 9 -26 20 -101 26 -167 10 -115 36 -229
67 -289 13 -26 13 -30 -6 -50 -30 -32 -51 -90 -51 -140 0 -47 14 -96 31 -107
7 -4 5 -24 -5 -59 -22 -72 -20 -132 3 -161 12 -16 16 -30 10 -44 -17 -43 -10
-124 14 -163 20 -32 23 -47 19 -107 -5 -87 13 -115 91 -141 72 -24 212 -22
295 4 34 11 64 16 67 12 7 -12 -20 -83 -50 -128 -30 -46 -120 -122 -145 -122
-9 0 -32 -7 -50 -16 -72 -36 -258 3 -328 69 -27 25 -88 148 -100 203 -14 63 1
200 30 271 14 34 23 65 20 67 -12 12 -46 -19 -63 -60 -11 -24 -24 -44 -28 -44
-11 0 -84 95 -105 137 -39 77 -45 239 -15 398 53 289 61 356 56 490 -4 91 -12
149 -26 195 -34 108 -26 130 47 130 29 0 55 -8 80 -25z m-2850 -518 c1 -70 20
-145 44 -174 13 -17 -7 -41 -102 -118 -166 -135 -401 -210 -655 -209 -161 1
-290 29 -394 85 -89 47 -94 54 -95 156 -1 59 -8 106 -21 140 -10 29 -17 55
-14 57 2 2 27 0 54 -5 277 -54 507 -72 657 -49 115 17 305 81 413 139 50 27
95 50 101 50 8 1 12 -24 12 -72z m117 -41 c66 -28 95 -110 70 -205 -62 -239
-225 -386 -542 -490 -157 -51 -364 -66 -487 -35 -250 63 -381 142 -478 288
-31 46 -47 121 -29 139 6 6 11 20 11 31 1 26 18 49 47 64 37 20 53 15 53 -18
0 -16 -4 -30 -10 -30 -5 0 -10 -12 -10 -27 0 -36 70 -102 152 -142 140 -69
398 -98 583 -67 181 31 364 106 480 198 88 69 185 168 185 188 0 28 -17 34
-30 10 -6 -11 -17 -20 -24 -20 -18 0 -46 60 -46 99 0 36 19 40 75 17z m605
-76 c93 -27 186 -70 313 -143 54 -32 100 -57 102 -57 3 0 42 -24 88 -54 151
-99 499 -317 514 -323 9 -4 34 -45 57 -92 l41 -86 -1 -155 c0 -163 -6 -200
-61 -360 -71 -207 -172 -326 -366 -435 l-69 -38 -73 13 c-40 7 -77 15 -83 19
-5 3 -13 25 -16 47 -6 33 -4 43 9 48 30 11 165 342 150 366 -11 17 -23 11 -33
-17 -6 -16 -31 -75 -57 -133 -26 -58 -53 -121 -61 -140 -12 -28 -17 -32 -24
-20 -5 8 -10 25 -10 36 0 32 -90 289 -135 388 -14 30 -29 66 -35 80 -9 26 -34
35 -45 17 -3 -5 6 -36 21 -68 79 -177 170 -464 162 -515 -3 -23 -28 -39 -228
-145 -134 -70 -435 -197 -576 -243 -139 -44 -360 -102 -464 -120 -239 -43
-570 -66 -830 -57 -239 9 -569 58 -673 102 -37 15 -37 16 -23 44 9 17 48 49
93 77 75 46 233 191 233 213 0 13 -37 15 -42 3 -6 -16 -202 -172 -215 -172
-10 0 -9 9 6 38 40 78 66 201 66 314 0 65 -4 108 -10 108 -5 0 -15 -48 -22
-107 -7 -66 -23 -145 -42 -203 -32 -96 -138 -312 -156 -317 -6 -2 -16 10 -22
25 -44 97 -234 243 -398 305 -175 65 -423 70 -595 12 -38 -13 -70 -21 -70 -17
0 23 334 734 360 767 4 6 41 73 82 150 158 298 248 402 438 504 53 28 101 45
165 56 168 32 260 44 338 44 l77 1 0 -41 c0 -96 124 -245 258 -313 153 -77
318 -116 487 -116 188 0 367 49 553 152 116 65 199 139 256 231 56 91 76 152
83 249 5 67 9 78 27 84 91 30 345 26 456 -6z m2761 4 c72 -20 125 -63 140
-113 19 -63 4 -77 -87 -84 -42 -4 -102 -7 -133 -7 -31 0 -102 -9 -159 -20
-173 -34 -212 -24 -212 52 0 92 76 158 205 178 86 13 186 11 246 -6z m146
-249 c7 -2 17 -21 23 -42 10 -32 9 -46 -4 -76 -19 -47 -68 -70 -226 -104 -93
-20 -137 -24 -228 -21 -107 3 -115 4 -134 28 -24 29 -21 78 8 137 l19 37 105
18 c179 31 377 41 437 23z m12 -228 c18 -23 24 -73 11 -111 -44 -134 -508
-202 -571 -84 -15 28 -5 109 15 123 9 7 76 15 158 18 103 5 171 14 242 31 54
14 101 28 104 31 10 9 29 5 41 -8z m-1720 -196 c47 -26 111 -63 141 -80 30
-17 114 -61 187 -97 l131 -67 -21 -33 c-15 -24 -30 -34 -47 -34 -106 0 -348
-271 -317 -354 8 -20 27 -21 27 -1 0 53 152 243 230 289 38 22 39 33 -5 -94
-48 -139 -85 -309 -85 -393 0 -58 3 -78 13 -75 7 3 13 26 14 59 1 30 15 103
29 163 30 122 37 121 48 -11 9 -109 46 -237 103 -353 40 -82 60 -108 143 -190
110 -107 223 -181 315 -205 72 -19 218 -22 260 -5 17 6 66 21 110 32 137 35
243 96 344 200 33 35 61 58 61 52 0 -24 -80 -140 -148 -214 -81 -89 -148 -132
-267 -175 -77 -28 -87 -29 -270 -29 -211 -1 -303 10 -469 56 -125 34 -134 38
-356 146 -91 43 -212 100 -270 125 -58 25 -150 68 -205 95 -55 26 -126 59
-157 71 -32 13 -58 25 -58 27 0 2 17 12 38 23 75 38 200 140 246 200 57 74 99
156 136 269 50 154 63 240 58 391 -5 119 -9 143 -32 194 -14 32 -26 60 -26 62
0 10 15 3 99 -44z m840 -20 l46 -50 -5 -103 -5 -103 -24 74 c-12 41 -25 89
-28 108 -6 33 -26 45 -36 20 -7 -20 19 -139 45 -200 30 -73 81 -140 146 -193
119 -97 215 -124 361 -100 106 17 172 45 259 110 70 54 82 87 28 77 -5 -1 -5
6 -1 16 4 10 10 44 14 76 7 58 21 84 39 73 16 -9 22 -123 11 -179 -10 -46 -21
-61 -95 -134 -102 -101 -168 -187 -160 -208 8 -23 23 -18 53 17 87 101 127
138 134 125 5 -7 24 -60 43 -118 60 -177 72 -309 35 -381 -32 -63 -183 -207
-261 -250 -74 -40 -198 -83 -268 -93 -25 -4 -62 -12 -83 -17 -50 -15 -156 4
-238 43 -148 70 -292 206 -358 338 -72 143 -111 300 -111 450 0 106 20 222 44
256 37 53 143 166 185 197 47 34 46 34 56 -59 9 -94 62 -243 87 -243 18 0 15
23 -13 111 -39 119 -48 228 -25 284 20 48 58 105 70 105 4 0 29 -22 55 -49z
m869 -45 c3 -33 -2 -43 -45 -85 -32 -32 -68 -56 -108 -71 -111 -42 -279 -36
-341 12 -23 19 -26 26 -21 65 2 24 7 46 9 49 3 2 40 -1 82 -6 61 -9 92 -8 154
4 42 8 93 17 112 20 19 4 58 17 85 31 28 13 55 23 60 21 6 -1 11 -19 13 -40z
m-2500 -1343 c-1 -214 1 -422 5 -463 4 -41 12 -129 18 -195 5 -66 16 -147 24
-181 8 -33 17 -112 21 -175 l7 -115 -89 -51 c-244 -141 -682 -306 -946 -358
-250 -48 -654 -76 -826 -56 -299 35 -588 109 -832 213 -164 69 -216 99 -213
123 2 11 10 70 20 130 22 139 21 403 -2 525 -8 47 -21 121 -28 165 -14 92 -14
372 1 387 6 6 34 3 78 -10 77 -22 187 -43 374 -69 99 -14 191 -17 435 -17 431
1 624 27 1015 136 248 69 573 205 815 342 55 31 105 56 112 56 10 0 12 -87 11
-387z m-3461 313 c164 -35 321 -122 428 -238 60 -64 79 -95 89 -145 6 -26 -1
-45 -39 -113 -74 -131 -161 -311 -175 -363 -15 -55 -27 -67 -35 -35 -3 13 -16
28 -28 33 -12 6 -24 19 -26 29 -4 24 -40 55 -63 56 -24 0 -23 -3 15 -43 43
-46 74 -98 91 -155 18 -58 28 -152 17 -152 -5 0 -27 25 -50 54 -43 57 -110
110 -153 121 -45 12 -40 -13 8 -37 115 -57 217 -237 246 -435 6 -45 9 -85 6
-88 -3 -3 -18 -1 -34 5 -53 20 -165 40 -227 40 -246 0 -571 -138 -701 -296
-28 -34 -54 -60 -58 -58 -8 5 -61 169 -77 239 -44 195 -64 503 -42 670 21 161
103 483 165 645 52 137 77 182 115 207 34 23 139 58 196 66 75 10 269 6 332
-7z m576 -573 c2 -76 17 -219 32 -318 24 -158 27 -199 22 -335 -4 -100 -15
-204 -31 -295 -29 -157 -31 -222 -14 -447 9 -124 9 -184 -2 -287 -13 -131 -22
-155 -34 -83 -3 22 -16 63 -30 93 -42 97 -93 262 -110 359 -10 52 -21 168 -27
258 -8 145 -37 325 -57 356 -3 6 -9 74 -13 151 -7 138 -6 141 23 230 17 49 43
119 59 155 35 77 161 300 170 300 4 0 9 -62 12 -137z m2971 -954 c3 -17 6 -60
6 -95 0 -91 30 -218 95 -404 56 -161 98 -406 85 -502 -10 -68 -33 -141 -59
-183 -48 -79 -472 -239 -886 -334 -186 -42 -344 -63 -716 -96 -329 -28 -882
26 -1071 104 -12 6 -59 20 -103 32 -102 27 -205 81 -250 130 -34 38 -35 40
-32 118 2 69 -1 83 -21 111 -23 30 -23 32 -8 104 30 144 48 356 42 471 -13
222 -18 405 -13 419 5 12 25 6 109 -33 247 -117 513 -196 803 -242 114 -17
178 -21 340 -20 309 3 464 16 659 57 262 55 674 210 911 343 50 28 93 51 96
51 4 0 9 -14 13 -31z m-3369 7 c159 -35 165 -41 165 -152 0 -165 38 -326 145
-614 25 -69 27 -83 21 -168 -8 -124 -12 -130 -61 -92 -47 35 -65 38 -65 10 0
-14 25 -37 84 -76 53 -35 89 -66 96 -84 21 -52 -9 -170 -44 -170 -16 0 -86 67
-86 82 0 5 7 8 15 5 24 -10 27 11 3 27 -44 31 -194 11 -258 -34 -14 -9 -29
-19 -35 -21 -77 -30 -185 -145 -185 -197 0 -32 14 -27 37 16 30 52 73 88 84
71 15 -25 10 -40 -38 -108 -30 -41 -49 -80 -53 -105 -3 -22 -10 -41 -16 -43
-19 -6 -78 42 -102 82 -26 46 -25 87 8 220 25 99 26 153 4 162 -17 6 -35 -13
-33 -37 4 -48 -2 -80 -15 -80 -19 0 -113 65 -164 114 -64 61 -87 107 -126 256
-39 151 -93 308 -136 390 -15 30 -42 86 -59 124 l-32 70 37 53 c51 75 114 124
239 188 209 107 410 146 570 111z m224 -1289 c36 -53 155 -135 197 -137 19 0
245 -99 309 -135 114 -63 136 -107 143 -280 5 -143 -8 -225 -44 -272 -25 -33
-71 -69 -78 -62 -3 2 2 29 10 59 20 73 29 277 15 313 -6 15 -16 27 -23 27 -10
0 -13 -31 -13 -127 0 -105 -4 -141 -23 -201 -25 -81 -62 -128 -107 -136 -51
-10 -59 3 -41 65 18 65 33 163 42 282 6 74 5 87 -9 87 -19 0 -27 -21 -27 -72
0 -79 -31 -253 -55 -305 -15 -33 -35 -60 -55 -71 -29 -18 -118 -37 -128 -28
-2 3 3 27 12 53 10 30 19 100 23 186 5 119 4 137 -9 137 -12 0 -17 -20 -22
-96 -13 -180 -45 -292 -89 -316 -49 -26 -197 11 -350 89 -44 22 -48 27 -43 51
4 15 19 38 33 51 25 22 33 23 101 17 87 -7 92 -9 92 -42 0 -19 5 -25 17 -22
22 4 31 37 32 121 l1 68 -107 107 c-123 122 -169 193 -160 249 3 19 26 66 51
105 46 72 58 122 35 145 -7 7 -9 18 -6 25 10 27 178 105 229 107 9 1 30 -18
47 -42z"/>
<path d="M2980 8860 c0 -41 64 -83 183 -119 140 -43 181 -81 179 -168 -1 -85
-62 -171 -157 -221 -43 -22 -63 -26 -140 -27 -70 0 -95 4 -115 18 -13 9 -32
17 -41 17 -9 0 -33 18 -53 40 -38 43 -56 50 -56 23 0 -53 113 -130 208 -140
128 -13 279 47 338 136 38 57 55 141 43 204 -17 90 -34 103 -223 168 -65 22
-108 43 -125 61 -31 33 -41 35 -41 8z"/>
<path d="M2090 8596 c-72 -19 -138 -57 -191 -109 -76 -74 -62 -92 25 -32 90
61 181 86 344 92 92 4 141 10 139 16 -4 13 -33 21 -125 36 -90 14 -134 13
-192 -3z"/>
<path d="M2434 7976 c-30 -13 -114 -119 -114 -143 0 -25 20 -13 46 27 28 42
44 49 63 26 19 -23 106 -56 204 -76 114 -24 303 -26 437 -5 250 41 522 137
486 172 -3 3 -36 -8 -73 -25 -86 -39 -312 -96 -468 -117 -200 -28 -406 -4
-526 61 -55 30 -61 45 -23 62 14 7 22 17 19 22 -8 13 -13 12 -51 -4z"/>
</g>
</svg>
